<svg width="32" height="32" viewBox="0 0 32 32" fill="none" xmlns="http://www.w3.org/2000/svg">
<path d="M12.9466 8.38659C12.8227 8.26161 12.6752 8.16242 12.5127 8.09473C12.3503 8.02704 12.176 7.99219 12 7.99219C11.824 7.99219 11.6497 8.02704 11.4872 8.09473C11.3247 8.16242 11.1773 8.26161 11.0533 8.38659L4.38665 15.0533C4.26168 15.1772 4.16248 15.3247 4.09479 15.4871C4.0271 15.6496 3.99225 15.8239 3.99225 15.9999C3.99225 16.1759 4.0271 16.3502 4.09479 16.5127C4.16248 16.6752 4.26168 16.8226 4.38665 16.9466L11.0533 23.6133C11.1773 23.7382 11.3247 23.8374 11.4872 23.9051C11.6497 23.9728 11.824 24.0077 12 24.0077C12.176 24.0077 12.3503 23.9728 12.5127 23.9051C12.6752 23.8374 12.8227 23.7382 12.9466 23.6133C13.0716 23.4893 13.1708 23.3418 13.2385 23.1794C13.3062 23.0169 13.341 22.8426 13.341 22.6666C13.341 22.4906 13.3062 22.3163 13.2385 22.1538C13.1708 21.9913 13.0716 21.8439 12.9466 21.7199L7.21331 15.9999L12.9466 10.2799C13.0716 10.156 13.1708 10.0085 13.2385 9.84602C13.3062 9.68354 13.341 9.50927 13.341 9.33325C13.341 9.15724 13.3062 8.98296 13.2385 8.82048C13.1708 8.658 13.0716 8.51054 12.9466 8.38659ZM27.6133 15.0533L20.9466 8.38659C20.8223 8.26227 20.6747 8.16365 20.5123 8.09637C20.3499 8.02909 20.1758 7.99446 20 7.99446C19.6449 7.99446 19.3044 8.13551 19.0533 8.38659C18.929 8.5109 18.8304 8.65849 18.7631 8.82092C18.6958 8.98335 18.6612 9.15744 18.6612 9.33325C18.6612 9.68832 18.8022 10.0288 19.0533 10.2799L24.7866 15.9999L19.0533 21.7199C18.9283 21.8439 18.8292 21.9913 18.7615 22.1538C18.6938 22.3163 18.6589 22.4906 18.6589 22.6666C18.6589 22.8426 18.6938 23.0169 18.7615 23.1794C18.8292 23.3418 18.9283 23.4893 19.0533 23.6133C19.1773 23.7382 19.3247 23.8374 19.4872 23.9051C19.6497 23.9728 19.824 24.0077 20 24.0077C20.176 24.0077 20.3503 23.9728 20.5127 23.9051C20.6752 23.8374 20.8227 23.7382 20.9466 23.6133L27.6133 16.9466C27.7383 16.8226 27.8375 16.6752 27.9052 16.5127C27.9729 16.3502 28.0077 16.1759 28.0077 15.9999C28.0077 15.8239 27.9729 15.6496 27.9052 15.4871C27.8375 15.3247 27.7383 15.1772 27.6133 15.0533Z" fill="#DEF8FC"/>
</svg>
