<svg width="32" height="32" viewBox="0 0 32 32" fill="none" xmlns="http://www.w3.org/2000/svg">
<g id="uil:clock">
<path id="Vector" d="M20.131 16.8457L17.3337 15.231V9.33366C17.3337 8.98004 17.1932 8.6409 16.9431 8.39085C16.6931 8.1408 16.354 8.00033 16.0003 8.00033C15.6467 8.00033 15.3076 8.1408 15.0575 8.39085C14.8075 8.6409 14.667 8.98004 14.667 9.33366V16.0003C14.667 16.2344 14.7286 16.4643 14.8456 16.667C14.9627 16.8697 15.131 17.038 15.3337 17.155L18.7977 19.155C18.9494 19.2439 19.1171 19.302 19.2914 19.3258C19.4656 19.3496 19.6428 19.3387 19.8128 19.2938C19.9828 19.2488 20.1422 19.1707 20.2819 19.0639C20.4216 18.9571 20.5388 18.8237 20.6267 18.6714C20.7146 18.5191 20.7715 18.351 20.7942 18.1766C20.8169 18.0022 20.8048 17.8251 20.7587 17.6554C20.7127 17.4857 20.6335 17.3268 20.5258 17.1878C20.418 17.0489 20.2839 16.9326 20.131 16.8457ZM16.0003 2.66699C13.3632 2.66699 10.7854 3.44898 8.59273 4.91406C6.40007 6.37915 4.69111 8.46153 3.68194 10.8979C2.67277 13.3342 2.40872 16.0151 2.92319 18.6015C3.43766 21.1879 4.70754 23.5637 6.57224 25.4284C8.43694 27.2931 10.8127 28.563 13.3991 29.0775C15.9855 29.5919 18.6664 29.3279 21.1028 28.3187C23.5391 27.3096 25.6215 25.6006 27.0866 23.4079C28.5517 21.2153 29.3337 18.6374 29.3337 16.0003C29.3298 12.4653 27.9238 9.07617 25.4241 6.57652C22.9245 4.07688 19.5354 2.67087 16.0003 2.66699ZM16.0003 26.667C13.8907 26.667 11.8284 26.0414 10.0742 24.8693C8.32012 23.6973 6.95295 22.0314 6.14562 20.0823C5.33828 18.1332 5.12705 15.9885 5.53862 13.9194C5.9502 11.8502 6.9661 9.94961 8.45786 8.45785C9.94962 6.96609 11.8502 5.95019 13.9194 5.53862C15.9885 5.12704 18.1332 5.33828 20.0823 6.14561C22.0314 6.95295 23.6973 8.32012 24.8693 10.0742C26.0414 11.8284 26.667 13.8907 26.667 16.0003C26.6635 18.8282 25.5385 21.5393 23.5389 23.5389C21.5393 25.5385 18.8282 26.6635 16.0003 26.667Z" fill="#DEF8FC"/>
</g>
</svg>
