<svg width="32" height="32" viewBox="0 0 32 32" fill="none" xmlns="http://www.w3.org/2000/svg">
<g id="tabler:face-id">
<path id="Vector" d="M5.33301 10.6663V7.99967C5.33301 7.29243 5.61396 6.61415 6.11406 6.11406C6.61415 5.61396 7.29243 5.33301 7.99967 5.33301H10.6663M5.33301 21.333V23.9997C5.33301 24.7069 5.61396 25.3852 6.11406 25.8853C6.61415 26.3854 7.29243 26.6663 7.99967 26.6663H10.6663M21.333 5.33301H23.9997C24.7069 5.33301 25.3852 5.61396 25.8853 6.11406C26.3854 6.61415 26.6663 7.29243 26.6663 7.99967V10.6663M21.333 26.6663H23.9997C24.7069 26.6663 25.3852 26.3854 25.8853 25.8853C26.3854 25.3852 26.6663 24.7069 26.6663 23.9997V21.333M11.9997 13.333H12.013M19.9997 13.333H20.013M12.6663 19.9997C13.1008 20.4431 13.6195 20.7954 14.1918 21.036C14.7642 21.2765 15.3788 21.4004 15.9997 21.4004C16.6205 21.4004 17.2351 21.2765 17.8075 21.036C18.3799 20.7954 18.8985 20.4431 19.333 19.9997" stroke="#DEF8FC" stroke-width="2.66667" stroke-linecap="round" stroke-linejoin="round"/>
</g>
</svg>
