<svg width="32" height="32" viewBox="0 0 32 32" fill="none" xmlns="http://www.w3.org/2000/svg">
<g id="mic">
<path id="Vector" d="M16.0003 18.667C14.8892 18.667 13.9448 18.2781 13.167 17.5003C12.3892 16.7225 12.0003 15.7781 12.0003 14.667V6.66699C12.0003 5.55588 12.3892 4.61144 13.167 3.83366C13.9448 3.05588 14.8892 2.66699 16.0003 2.66699C17.1114 2.66699 18.0559 3.05588 18.8337 3.83366C19.6114 4.61144 20.0003 5.55588 20.0003 6.66699V14.667C20.0003 15.7781 19.6114 16.7225 18.8337 17.5003C18.0559 18.2781 17.1114 18.667 16.0003 18.667ZM14.667 28.0003V23.9003C12.3559 23.5892 10.4448 22.5559 8.93366 20.8003C7.42255 19.0448 6.66699 17.0003 6.66699 14.667H9.33366C9.33366 16.5114 9.98388 18.0839 11.2843 19.3843C12.5848 20.6848 14.1568 21.3345 16.0003 21.3337C17.8448 21.3337 19.4172 20.6834 20.7177 19.383C22.0181 18.0825 22.6679 16.5105 22.667 14.667H25.3337C25.3337 17.0003 24.5781 19.0448 23.067 20.8003C21.5559 22.5559 19.6448 23.5892 17.3337 23.9003V28.0003H14.667Z" fill="#DEF8FC"/>
</g>
</svg>
