<svg width="32" height="32" viewBox="0 0 32 32" fill="none" xmlns="http://www.w3.org/2000/svg">
<g id="ion:power">
<path id="Vector" d="M16 28.9998C8.83187 28.9998 3 23.158 3 15.978C3 12.0748 4.70313 8.41546 7.6725 5.94358C7.81114 5.82747 7.97133 5.73985 8.14389 5.68573C8.31645 5.63162 8.49799 5.61207 8.67811 5.62822C8.85823 5.64437 9.0334 5.69589 9.19358 5.77983C9.35376 5.86377 9.49581 5.97849 9.6116 6.11741C9.72738 6.25633 9.81462 6.41673 9.86832 6.58942C9.92202 6.76211 9.94113 6.94369 9.92455 7.12377C9.90797 7.30386 9.85603 7.4789 9.77171 7.63888C9.68738 7.79886 9.57232 7.94064 9.43312 8.05608C7.0925 10.0061 5.75 12.8936 5.75 15.978C5.75 21.6417 10.3481 26.2498 16 26.2498C21.6519 26.2498 26.25 21.6417 26.25 15.978C26.2498 14.4643 25.9144 12.9695 25.2679 11.6008C24.6214 10.2322 23.6797 9.02378 22.5106 8.06234C22.3658 7.94928 22.2451 7.80835 22.1557 7.64787C22.0663 7.48739 22.0099 7.31062 21.9899 7.12799C21.9699 6.94536 21.9868 6.76059 22.0394 6.58457C22.092 6.40856 22.1794 6.24487 22.2964 6.10319C22.4133 5.96151 22.5575 5.8447 22.7203 5.75967C22.8832 5.67463 23.0614 5.6231 23.2445 5.6081C23.4276 5.59311 23.6119 5.61496 23.7864 5.67237C23.9609 5.72977 24.1222 5.82157 24.2606 5.94234C25.7427 7.1613 26.9363 8.69343 27.7558 10.4286C28.5753 12.1638 29.0002 14.059 29 15.978C29 23.158 23.1681 28.9998 16 28.9998Z" fill="#DEF8FC"/>
<path id="Vector_2" d="M16 17C15.6353 17 15.2856 16.8551 15.0277 16.5973C14.7699 16.3394 14.625 15.9897 14.625 15.625V4.375C14.625 4.01033 14.7699 3.66059 15.0277 3.40273C15.2856 3.14487 15.6353 3 16 3C16.3647 3 16.7144 3.14487 16.9723 3.40273C17.2301 3.66059 17.375 4.01033 17.375 4.375V15.625C17.375 15.9897 17.2301 16.3394 16.9723 16.5973C16.7144 16.8551 16.3647 17 16 17Z" fill="#DEF8FC"/>
</g>
</svg>
