<svg width="25" height="29" viewBox="0 0 25 29" fill="none" xmlns="http://www.w3.org/2000/svg">
<g id="Group">
<path id="Vector" d="M11.667 13.3333V12C11.667 11.4696 11.8777 10.9609 12.2528 10.5858C12.6279 10.2107 13.1366 10 13.667 10C14.1974 10 14.7061 10.2107 15.0812 10.5858C15.4563 10.9609 15.667 11.4696 15.667 12V14" stroke="#DEF8FC" stroke-width="2.66667" stroke-linecap="round" stroke-linejoin="round"/>
<path id="Vector_2" d="M19.6669 13.9997V5.33301C19.6669 4.80257 19.8776 4.29387 20.2527 3.91879C20.6278 3.54372 21.1365 3.33301 21.6669 3.33301C22.1973 3.33301 22.706 3.54372 23.0811 3.91879C23.4562 4.29387 23.6669 4.80257 23.6669 5.33301V19.333C23.6669 21.4547 22.8241 23.4896 21.3238 24.9899C19.8235 26.4902 17.7886 27.333 15.6669 27.333H13.0002H13.2776C11.9527 27.3332 10.6485 27.0044 9.48209 26.3761C8.31569 25.7477 7.3236 24.8395 6.59491 23.733C6.50746 23.5999 6.42035 23.4666 6.33358 23.333C5.91758 22.6943 4.45758 20.149 1.95224 15.6957C1.69684 15.2417 1.62862 14.706 1.76209 14.2025C1.89555 13.6991 2.22018 13.2675 2.66691 12.9997C3.14275 12.7142 3.70034 12.5958 4.25112 12.6635C4.80191 12.7311 5.3143 12.9808 5.70691 13.373L7.66691 15.333" stroke="#DEF8FC" stroke-width="2.66667" stroke-linecap="round" stroke-linejoin="round"/>
<path id="Vector_3" d="M15.667 12C15.667 11.4696 15.8777 10.9609 16.2528 10.5858C16.6279 10.2107 17.1366 10 17.667 10C18.1974 10 18.7061 10.2107 19.0812 10.5858C19.4563 10.9609 19.667 11.4696 19.667 12V14M7.66699 15.3333V4C7.66699 3.46957 7.87771 2.96086 8.25278 2.58579C8.62785 2.21071 9.13656 2 9.66699 2C10.1974 2 10.7061 2.21071 11.0812 2.58579C11.4563 2.96086 11.667 3.46957 11.667 4V14" stroke="#DEF8FC" stroke-width="2.66667" stroke-linecap="round" stroke-linejoin="round"/>
</g>
</svg>
