<svg width="32" height="32" viewBox="0 0 32 32" fill="none" xmlns="http://www.w3.org/2000/svg">
<g id="uil:clock">
<path id="Vector" d="M20.1306 16.8457L17.3333 15.231V9.33366C17.3333 8.98004 17.1928 8.6409 16.9428 8.39085C16.6927 8.1408 16.3536 8.00033 16 8.00033C15.6463 8.00033 15.3072 8.1408 15.0572 8.39085C14.8071 8.6409 14.6666 8.98004 14.6666 9.33366V16.0003C14.6666 16.2344 14.7282 16.4643 14.8453 16.667C14.9623 16.8697 15.1306 17.038 15.3333 17.155L18.7973 19.155C18.949 19.2439 19.1168 19.302 19.291 19.3258C19.4652 19.3496 19.6424 19.3387 19.8124 19.2938C19.9824 19.2488 20.1419 19.1707 20.2815 19.0639C20.4212 18.9571 20.5384 18.8237 20.6263 18.6714C20.7142 18.5191 20.7712 18.351 20.7938 18.1766C20.8165 18.0022 20.8045 17.8251 20.7584 17.6554C20.7123 17.4857 20.6331 17.3268 20.5254 17.1878C20.4177 17.0489 20.2835 16.9326 20.1306 16.8457ZM16 2.66699C13.3629 2.66699 10.785 3.44898 8.59236 4.91406C6.39971 6.37915 4.69074 8.46153 3.68157 10.8979C2.6724 13.3342 2.40836 16.0151 2.92283 18.6015C3.4373 21.1879 4.70717 23.5637 6.57188 25.4284C8.43658 27.2931 10.8123 28.563 13.3988 29.0775C15.9852 29.5919 18.6661 29.3279 21.1024 28.3187C23.5388 27.3096 25.6211 25.6006 27.0862 23.4079C28.5513 21.2153 29.3333 18.6374 29.3333 16.0003C29.3294 12.4653 27.9234 9.07617 25.4238 6.57652C22.9241 4.07688 19.535 2.67087 16 2.66699ZM16 26.667C13.8903 26.667 11.828 26.0414 10.0739 24.8693C8.31976 23.6973 6.95259 22.0314 6.14525 20.0823C5.33792 18.1332 5.12668 15.9885 5.53826 13.9194C5.94983 11.8502 6.96573 9.94961 8.45749 8.45785C9.94925 6.96609 11.8499 5.95019 13.919 5.53862C15.9881 5.12704 18.1328 5.33828 20.0819 6.14561C22.031 6.95295 23.6969 8.32012 24.869 10.0742C26.041 11.8284 26.6666 13.8907 26.6666 16.0003C26.6631 18.8282 25.5382 21.5393 23.5385 23.5389C21.5389 25.5385 18.8279 26.6635 16 26.667Z" fill="#1E85FF"/>
</g>
</svg>
