<svg width="32" height="32" viewBox="0 0 32 32" fill="none" xmlns="http://www.w3.org/2000/svg">
<g id="tabler:face-id">
<path id="Vector" d="M5.33337 10.6663V7.99967C5.33337 7.29243 5.61433 6.61415 6.11442 6.11406C6.61452 5.61396 7.2928 5.33301 8.00004 5.33301H10.6667M5.33337 21.333V23.9997C5.33337 24.7069 5.61433 25.3852 6.11442 25.8853C6.61452 26.3854 7.2928 26.6663 8.00004 26.6663H10.6667M21.3334 5.33301H24C24.7073 5.33301 25.3856 5.61396 25.8857 6.11406C26.3858 6.61415 26.6667 7.29243 26.6667 7.99967V10.6663M21.3334 26.6663H24C24.7073 26.6663 25.3856 26.3854 25.8857 25.8853C26.3858 25.3852 26.6667 24.7069 26.6667 23.9997V21.333M12 13.333H12.0134M20 13.333H20.0134M12.6667 19.9997C13.1012 20.4431 13.6198 20.7954 14.1922 21.036C14.7646 21.2765 15.3792 21.4004 16 21.4004C16.6209 21.4004 17.2355 21.2765 17.8079 21.036C18.3802 20.7954 18.8989 20.4431 19.3334 19.9997" stroke="#1E85FF" stroke-width="2.66667" stroke-linecap="round" stroke-linejoin="round"/>
</g>
</svg>
