<svg width="32" height="32" viewBox="0 0 32 32" fill="none" xmlns="http://www.w3.org/2000/svg">
<g id="mic">
<path id="Vector" d="M16 18.667C14.8888 18.667 13.9444 18.2781 13.1666 17.5003C12.3888 16.7225 12 15.7781 12 14.667V6.66699C12 5.55588 12.3888 4.61144 13.1666 3.83366C13.9444 3.05588 14.8888 2.66699 16 2.66699C17.1111 2.66699 18.0555 3.05588 18.8333 3.83366C19.6111 4.61144 20 5.55588 20 6.66699V14.667C20 15.7781 19.6111 16.7225 18.8333 17.5003C18.0555 18.2781 17.1111 18.667 16 18.667ZM14.6666 28.0003V23.9003C12.3555 23.5892 10.4444 22.5559 8.93329 20.8003C7.42218 19.0448 6.66663 17.0003 6.66663 14.667H9.33329C9.33329 16.5114 9.98352 18.0839 11.284 19.3843C12.5844 20.6848 14.1564 21.3345 16 21.3337C17.8444 21.3337 19.4168 20.6834 20.7173 19.383C22.0177 18.0825 22.6675 16.5105 22.6666 14.667H25.3333C25.3333 17.0003 24.5777 19.0448 23.0666 20.8003C21.5555 22.5559 19.6444 23.5892 17.3333 23.9003V28.0003H14.6666Z" fill="#1E85FF"/>
</g>
</svg>
