<svg width="25" height="29" viewBox="0 0 25 29" fill="none" xmlns="http://www.w3.org/2000/svg">
<g id="Group">
<path id="Vector" d="M11.6666 13.3333V12C11.6666 11.4696 11.8773 10.9609 12.2524 10.5858C12.6275 10.2107 13.1362 10 13.6666 10C14.1971 10 14.7058 10.2107 15.0808 10.5858C15.4559 10.9609 15.6666 11.4696 15.6666 12V14" stroke="#1E85FF" stroke-width="2.66667" stroke-linecap="round" stroke-linejoin="round"/>
<path id="Vector_2" d="M19.6667 13.9997V5.33301C19.6667 4.80257 19.8774 4.29387 20.2525 3.91879C20.6275 3.54372 21.1362 3.33301 21.6667 3.33301C22.1971 3.33301 22.7058 3.54372 23.0809 3.91879C23.456 4.29387 23.6667 4.80257 23.6667 5.33301V19.333C23.6667 21.4547 22.8238 23.4896 21.3235 24.9899C19.8232 26.4902 17.7884 27.333 15.6667 27.333H13H13.2773C11.9524 27.3332 10.6482 27.0044 9.48184 26.3761C8.31544 25.7477 7.32335 24.8395 6.59467 23.733C6.50721 23.5999 6.4201 23.4666 6.33333 23.333C5.91733 22.6943 4.45733 20.149 1.952 15.6957C1.6966 15.2417 1.62838 14.706 1.76184 14.2025C1.89531 13.6991 2.21993 13.2675 2.66667 12.9997C3.1425 12.7142 3.7001 12.5958 4.25088 12.6635C4.80166 12.7311 5.31405 12.9808 5.70667 13.373L7.66667 15.333" stroke="#1E85FF" stroke-width="2.66667" stroke-linecap="round" stroke-linejoin="round"/>
<path id="Vector_3" d="M15.6666 12C15.6666 11.4696 15.8773 10.9609 16.2524 10.5858C16.6275 10.2107 17.1362 10 17.6666 10C18.1971 10 18.7058 10.2107 19.0808 10.5858C19.4559 10.9609 19.6666 11.4696 19.6666 12V14M7.66663 15.3333V4C7.66663 3.46957 7.87734 2.96086 8.25241 2.58579C8.62748 2.21071 9.13619 2 9.66663 2C10.1971 2 10.7058 2.21071 11.0808 2.58579C11.4559 2.96086 11.6666 3.46957 11.6666 4V14" stroke="#1E85FF" stroke-width="2.66667" stroke-linecap="round" stroke-linejoin="round"/>
</g>
</svg>
