<svg width="32" height="32" viewBox="0 0 32 32" fill="none" xmlns="http://www.w3.org/2000/svg">
<path d="M12.9467 8.38659C12.8228 8.26161 12.6753 8.16242 12.5128 8.09473C12.3503 8.02704 12.1761 7.99219 12 7.99219C11.824 7.99219 11.6498 8.02704 11.4873 8.09473C11.3248 8.16242 11.1773 8.26161 11.0534 8.38659L4.38671 15.0533C4.26174 15.1772 4.16254 15.3247 4.09485 15.4871C4.02716 15.6496 3.99231 15.8239 3.99231 15.9999C3.99231 16.1759 4.02716 16.3502 4.09485 16.5127C4.16254 16.6752 4.26174 16.8226 4.38671 16.9466L11.0534 23.6133C11.1773 23.7382 11.3248 23.8374 11.4873 23.9051C11.6498 23.9728 11.824 24.0077 12 24.0077C12.1761 24.0077 12.3503 23.9728 12.5128 23.9051C12.6753 23.8374 12.8228 23.7382 12.9467 23.6133C13.0717 23.4893 13.1709 23.3418 13.2386 23.1794C13.3063 23.0169 13.3411 22.8426 13.3411 22.6666C13.3411 22.4906 13.3063 22.3163 13.2386 22.1538C13.1709 21.9913 13.0717 21.8439 12.9467 21.7199L7.21337 15.9999L12.9467 10.2799C13.0717 10.156 13.1709 10.0085 13.2386 9.84602C13.3063 9.68354 13.3411 9.50927 13.3411 9.33325C13.3411 9.15724 13.3063 8.98296 13.2386 8.82048C13.1709 8.658 13.0717 8.51054 12.9467 8.38659ZM27.6134 15.0533L20.9467 8.38659C20.8224 8.26227 20.6748 8.16365 20.5124 8.09637C20.3499 8.02909 20.1759 7.99446 20 7.99446C19.645 7.99446 19.3044 8.13551 19.0534 8.38659C18.9291 8.5109 18.8304 8.65849 18.7632 8.82092C18.6959 8.98335 18.6613 9.15744 18.6613 9.33325C18.6613 9.68832 18.8023 10.0288 19.0534 10.2799L24.7867 15.9999L19.0534 21.7199C18.9284 21.8439 18.8292 21.9913 18.7615 22.1538C18.6938 22.3163 18.659 22.4906 18.659 22.6666C18.659 22.8426 18.6938 23.0169 18.7615 23.1794C18.8292 23.3418 18.9284 23.4893 19.0534 23.6133C19.1773 23.7382 19.3248 23.8374 19.4873 23.9051C19.6498 23.9728 19.824 24.0077 20 24.0077C20.1761 24.0077 20.3503 23.9728 20.5128 23.9051C20.6753 23.8374 20.8228 23.7382 20.9467 23.6133L27.6134 16.9466C27.7383 16.8226 27.8375 16.6752 27.9052 16.5127C27.9729 16.3502 28.0078 16.1759 28.0078 15.9999C28.0078 15.8239 27.9729 15.6496 27.9052 15.4871C27.8375 15.3247 27.7383 15.1772 27.6134 15.0533Z" fill="#1E85FF"/>
</svg>
