<svg width="28" height="26" viewBox="0 0 28 26" fill="none" xmlns="http://www.w3.org/2000/svg">
<path d="M13.2452 13.1973C14.0772 14.0121 14.6779 15.0332 14.986 16.1563C15.294 17.2793 15.2984 18.464 14.9985 19.5893C14.6961 20.7162 14.1011 21.7432 13.2739 22.566C12.4466 23.3888 11.4164 23.9783 10.2879 24.2746C9.15809 24.5734 7.96955 24.5696 6.84169 24.2636C5.71383 23.9576 4.68637 23.3602 3.86254 22.5313C2.65439 21.2895 1.98515 19.6211 2.00025 17.8887C2.01536 16.1563 2.71359 14.4998 3.94321 13.2793C6.50254 10.7326 10.6405 10.6973 13.2439 13.1986L13.2452 13.1973Z" stroke="#DEF8FC" stroke-width="2.66667" stroke-linejoin="round"/>
<path d="M13.3333 12.9993L24.6666 1.66602" stroke="#DEF8FC" stroke-width="2.66667" stroke-linecap="round" stroke-linejoin="round"/>
<path d="M18.2031 8.26641L21.8225 11.8664L26.0445 7.66641L22.4258 4.06641L18.2031 8.26641Z" stroke="#DEF8FC" stroke-width="2.66667" stroke-linejoin="round"/>
</svg>
