<svg width="32" height="33" viewBox="0 0 32 33" fill="none" xmlns="http://www.w3.org/2000/svg">
<g clip-path="url(#clip0_115_16419)">
<path d="M15.064 3.4269C15.5902 3.23004 16.1651 3.20438 16.7067 3.35357L16.936 3.4269L26.2693 6.92691C26.7426 7.10436 27.1556 7.41265 27.4604 7.81584C27.7652 8.21904 27.9491 8.70054 27.9907 9.20424L28 9.42424V16.5749C27.9999 18.7355 27.4166 20.8559 26.3115 22.7125C25.2064 24.569 23.6205 26.0928 21.7213 27.1229L21.3667 27.3082L16.8947 29.5442C16.6484 29.6672 16.3795 29.738 16.1046 29.7522C15.8298 29.7664 15.5549 29.7238 15.2973 29.6269L15.1053 29.5442L10.6333 27.3082C8.70081 26.342 7.06503 24.8718 5.89867 23.0531C4.73231 21.2343 4.07864 19.1343 4.00667 16.9749L4 16.5749V9.42424C4.00001 8.91908 4.1435 8.42431 4.41378 7.99753C4.68405 7.57076 5.06999 7.22953 5.52667 7.01357L5.73067 6.92691L15.064 3.4269ZM16 5.92424L6.66667 9.42424V16.5749C6.6667 18.2482 7.1166 19.8908 7.96927 21.3306C8.82194 22.7704 10.046 23.9545 11.5133 24.7589L11.8267 24.9229L16 27.0096L20.1733 24.9229C21.6703 24.1746 22.9385 23.0375 23.8452 21.6307C24.7518 20.224 25.2635 18.5993 25.3267 16.9269L25.3333 16.5749V9.42424L16 5.92424ZM20.5773 12.0056C20.8173 11.7664 21.1392 11.6276 21.4778 11.6173C21.8164 11.6069 22.1463 11.7259 22.4004 11.9499C22.6545 12.1739 22.8137 12.4863 22.8459 12.8235C22.878 13.1608 22.7806 13.4976 22.5733 13.7656L22.4627 13.8909L15.484 20.8709C15.2298 21.1251 14.8911 21.277 14.5322 21.2979C14.1734 21.3188 13.8193 21.2072 13.5373 20.9842L13.4093 20.8709L10.204 17.6656C9.96233 17.4262 9.82129 17.1035 9.80976 16.7635C9.79822 16.4235 9.91706 16.092 10.142 15.8368C10.3668 15.5816 10.6808 15.422 11.0195 15.3906C11.3582 15.3593 11.6961 15.4586 11.964 15.6682L12.0893 15.7789L14.4467 18.1362L20.5773 12.0056Z" fill="#DEF8FC"/>
</g>
<defs>
<clipPath id="clip0_115_16419">
<rect width="32" height="32" fill="white" transform="translate(0 0.5)"/>
</clipPath>
</defs>
</svg>
