<svg width="32" height="32" viewBox="0 0 32 32" fill="none" xmlns="http://www.w3.org/2000/svg">
<path d="M29.5462 17.4255C29.3538 17.2327 29.1125 17.0959 28.8483 17.0298C28.584 16.9638 28.3067 16.9709 28.0462 17.0505C26.2264 17.5999 24.2916 17.6453 22.4479 17.182C20.6043 16.7187 18.9208 15.764 17.5769 14.4196C16.233 13.0751 15.2789 11.3913 14.8163 9.54748C14.3537 7.70365 14.3999 5.76888 14.95 3.94923C15.0302 3.68861 15.0379 3.41105 14.9722 3.14638C14.9065 2.88172 14.7699 2.63998 14.5771 2.44715C14.3842 2.25433 14.1425 2.11771 13.8778 2.05201C13.6132 1.9863 13.3356 1.99398 13.075 2.07423C10.338 2.91548 7.93609 4.59868 6.21124 6.88423C4.70287 8.8891 3.78303 11.2746 3.55493 13.7732C3.32684 16.2717 3.79952 18.7844 4.91994 21.0292C6.04035 23.2741 7.76416 25.1623 9.89795 26.482C12.0317 27.8017 14.4911 28.5007 17 28.5005C19.9292 28.5091 22.7803 27.5566 25.1162 25.7892C27.4006 24.0626 29.082 21.6594 29.9212 18.9217C30.0001 18.6618 30.0069 18.3852 29.9408 18.1217C29.8748 17.8582 29.7384 17.6175 29.5462 17.4255ZM23.3112 23.393C21.2894 24.9151 18.7858 25.6557 16.2612 25.4786C13.7367 25.3014 11.361 24.2185 9.57153 22.4289C7.78202 20.6394 6.69904 18.2638 6.5219 15.7392C6.34477 13.2147 7.0854 10.7111 8.60749 8.68923C9.4084 7.62981 10.401 6.73008 11.5337 6.03673C11.5112 6.35673 11.5 6.67798 11.5 7.00048C11.504 10.5797 12.9275 14.0112 15.4584 16.542C17.9893 19.0729 21.4208 20.4965 25 20.5005C25.3225 20.5005 25.6437 20.4892 25.9637 20.4667C25.2707 21.5997 24.3709 22.5924 23.3112 23.393Z" fill="#1E85FF"/>
</svg>
