<svg width="32" height="33" viewBox="0 0 32 33" fill="none" xmlns="http://www.w3.org/2000/svg">
<path d="M16.0001 3.16602C8.64008 3.16602 2.66675 9.13935 2.66675 16.4993C2.66675 23.8593 8.64008 29.8327 16.0001 29.8327C23.3601 29.8327 29.3334 23.8593 29.3334 16.4993C29.3334 9.13935 23.3601 3.16602 16.0001 3.16602ZM9.80008 25.166C11.5467 23.9127 13.6801 23.166 16.0001 23.166C18.3201 23.166 20.4534 23.9127 22.2001 25.166C20.4534 26.4193 18.3201 27.166 16.0001 27.166C13.6801 27.166 11.5467 26.4193 9.80008 25.166ZM24.1867 23.326C21.8513 21.4936 18.9686 20.4978 16.0001 20.4978C13.0316 20.4978 10.1489 21.4936 7.81341 23.326C6.20931 21.4131 5.33115 18.9958 5.33341 16.4993C5.33341 10.606 10.1067 5.83268 16.0001 5.83268C21.8934 5.83268 26.6667 10.606 26.6667 16.4993C26.6667 19.0993 25.7334 21.4727 24.1867 23.326Z" fill="#DEF8FC"/>
<path d="M15.9999 8.5C13.4266 8.5 11.3333 10.5933 11.3333 13.1667C11.3333 15.74 13.4266 17.8333 15.9999 17.8333C18.5733 17.8333 20.6666 15.74 20.6666 13.1667C20.6666 10.5933 18.5733 8.5 15.9999 8.5ZM15.9999 15.1667C14.8933 15.1667 13.9999 14.2733 13.9999 13.1667C13.9999 12.06 14.8933 11.1667 15.9999 11.1667C17.1066 11.1667 17.9999 12.06 17.9999 13.1667C17.9999 14.2733 17.1066 15.1667 15.9999 15.1667Z" fill="#DEF8FC"/>
</svg>
