<svg width="40" height="40" viewBox="0 0 40 40" fill="none" xmlns="http://www.w3.org/2000/svg">
<path d="M18.1648 19.1041L24.6231 25.6041C24.9287 25.9097 25.0887 26.2919 25.1031 26.7508C25.1176 27.2097 24.9576 27.6053 24.6231 27.9375C24.3176 28.243 23.9287 28.3958 23.4564 28.3958C22.9842 28.3958 22.5953 28.243 22.2898 27.9375L15.8314 21.4791C15.1926 20.8403 14.8731 20.0486 14.8731 19.1041C14.8731 18.1597 15.1926 17.368 15.8314 16.7291L22.2898 10.2708C22.5953 9.96526 22.977 9.80526 23.4348 9.79081C23.8926 9.77637 24.2887 9.93637 24.6231 10.2708C24.9287 10.5764 25.0814 10.9653 25.0814 11.4375C25.0814 11.9097 24.9287 12.2986 24.6231 12.6041L18.1648 19.1041Z" fill="#DEF8FC"/>
</svg>
