<svg width="32" height="32" viewBox="0 0 32 32" fill="none" xmlns="http://www.w3.org/2000/svg">
<g id="basil:chat-outline">
<path id="Vector" d="M10.6667 12.6665C10.2246 12.6665 9.80072 12.8421 9.48816 13.1547C9.17559 13.4672 9 13.8911 9 14.3332C9 14.7752 9.17559 15.1991 9.48816 15.5117C9.80072 15.8242 10.2246 15.9998 10.6667 15.9998C11.1087 15.9998 11.5326 15.8242 11.8452 15.5117C12.1577 15.1991 12.3333 14.7752 12.3333 14.3332C12.3333 13.8911 12.1577 13.4672 11.8452 13.1547C11.5326 12.8421 11.1087 12.6665 10.6667 12.6665ZM16 12.6665C15.558 12.6665 15.134 12.8421 14.8215 13.1547C14.5089 13.4672 14.3333 13.8911 14.3333 14.3332C14.3333 14.7752 14.5089 15.1991 14.8215 15.5117C15.134 15.8242 15.558 15.9998 16 15.9998C16.442 15.9998 16.866 15.8242 17.1785 15.5117C17.4911 15.1991 17.6667 14.7752 17.6667 14.3332C17.6667 13.8911 17.4911 13.4672 17.1785 13.1547C16.866 12.8421 16.442 12.6665 16 12.6665ZM19.6667 14.3332C19.6667 13.8911 19.8423 13.4672 20.1548 13.1547C20.4674 12.8421 20.8913 12.6665 21.3333 12.6665C21.7754 12.6665 22.1993 12.8421 22.5118 13.1547C22.8244 13.4672 23 13.8911 23 14.3332C23 14.7752 22.8244 15.1991 22.5118 15.5117C22.1993 15.8242 21.7754 15.9998 21.3333 15.9998C20.8913 15.9998 20.4674 15.8242 20.1548 15.5117C19.8423 15.1991 19.6667 14.7752 19.6667 14.3332Z" fill="#DEF8FC"/>
<path id="Vector_2" fill-rule="evenodd" clip-rule="evenodd" d="M21.4667 6.12382C17.8748 5.81747 14.2641 5.79964 10.6694 6.07049L10.412 6.09049C8.75925 6.21522 7.21459 6.95974 6.0874 8.17494C4.96021 9.39015 4.33372 10.9863 4.33337 12.6438V23.9998C4.33353 24.1727 4.37849 24.3426 4.46388 24.4929C4.54928 24.6432 4.67218 24.7688 4.82059 24.8575C4.96901 24.9461 5.13787 24.9948 5.3107 24.9987C5.48353 25.0026 5.65443 24.9616 5.80671 24.8798L11.02 22.0785C11.2631 21.9478 11.5348 21.8796 11.8107 21.8798H23.7787C25.288 21.8798 26.5814 20.7998 26.852 19.3158C27.4014 16.3065 27.444 13.2265 26.98 10.2025L26.844 9.31049C26.7231 8.52223 26.3406 7.79755 25.758 7.25295C25.1754 6.70835 24.4266 6.37547 23.632 6.30782L21.4667 6.12382ZM10.8214 8.06515C14.3096 7.80197 17.8132 7.81891 21.2987 8.11582L23.464 8.30115C24.1787 8.36249 24.76 8.90515 24.868 9.61449L25.0054 10.5052C25.4349 13.3096 25.3943 16.166 24.8854 18.9572C24.8382 19.216 24.7018 19.4501 24.4998 19.6187C24.2979 19.7873 24.0431 19.8797 23.78 19.8798H11.8107C11.2048 19.8799 10.6084 20.0302 10.0747 20.3172L6.33337 22.3278V12.6425C6.33344 11.4894 6.76909 10.3789 7.55309 9.53332C8.33709 8.68775 9.41157 8.16956 10.5614 8.08249L10.82 8.06382L10.8214 8.06515Z" fill="#DEF8FC"/>
</g>
</svg>
