<svg width="32" height="32" viewBox="0 0 32 32" fill="none" xmlns="http://www.w3.org/2000/svg">
<g id="fluent:arrow-exit-20-filled">
<path id="Vector" d="M20.4 28C20.7183 28 21.0235 27.8736 21.2486 27.6485C21.4736 27.4235 21.6 27.1183 21.6 26.8C21.6 26.4817 21.4736 26.1765 21.2486 25.9515C21.0235 25.7264 20.7183 25.6 20.4 25.6H10.4C9.55136 25.6 8.73742 25.2629 8.13731 24.6627C7.53719 24.0626 7.20005 23.2487 7.20005 22.4V9.6C7.20005 8.75131 7.53719 7.93737 8.13731 7.33726C8.73742 6.73714 9.55136 6.4 10.4 6.4H20.4C20.7183 6.4 21.0235 6.27357 21.2486 6.04853C21.4736 5.82348 21.6 5.51826 21.6 5.2C21.6 4.88174 21.4736 4.57652 21.2486 4.35147C21.0235 4.12643 20.7183 4 20.4 4H10.4C8.91484 4 7.49045 4.59 6.44025 5.6402C5.39005 6.69041 4.80005 8.11479 4.80005 9.6V22.4C4.80005 23.8852 5.39005 25.3096 6.44025 26.3598C7.49045 27.41 8.91484 28 10.4 28H20.4ZM21.9856 9.9184C22.1014 9.81143 22.2371 9.72831 22.385 9.67379C22.5329 9.61927 22.6901 9.59443 22.8476 9.60067C23.0051 9.60691 23.1598 9.64411 23.3029 9.71016C23.446 9.77621 23.5747 9.8698 23.6816 9.9856L28.4817 15.1856C28.6865 15.4073 28.8003 15.6981 28.8003 16C28.8003 16.3019 28.6865 16.5927 28.4817 16.8144L23.6816 22.0144C23.4654 22.248 23.1653 22.3862 22.8472 22.3985C22.5292 22.4108 22.2193 22.2962 21.9856 22.08C21.752 21.8638 21.6139 21.5636 21.6016 21.2456C21.5893 20.9275 21.7038 20.6176 21.92 20.384L24.8608 17.1984H12.4C12.0818 17.1984 11.7766 17.072 11.5515 16.8469C11.3265 16.6219 11.2 16.3167 11.2 15.9984C11.2 15.6801 11.3265 15.3749 11.5515 15.1499C11.7766 14.9248 12.0818 14.7984 12.4 14.7984H24.8592L21.9184 11.6128C21.8115 11.497 21.7284 11.3613 21.6738 11.2134C21.6193 11.0656 21.5945 10.9084 21.6007 10.7509C21.607 10.5934 21.6442 10.4387 21.7102 10.2955C21.7763 10.1524 21.8699 10.0253 21.9856 9.9184Z" fill="#DEF8FC"/>
</g>
</svg>
