<svg width="28" height="30" viewBox="0 0 28 30" fill="none" xmlns="http://www.w3.org/2000/svg">
<g id="Group">
<path id="Vector" fill-rule="evenodd" clip-rule="evenodd" d="M14 10C12.6739 10 11.4021 10.5268 10.4645 11.4645C9.52678 12.4021 9 13.6739 9 15C9 16.3261 9.52678 17.5979 10.4645 18.5355C11.4021 19.4732 12.6739 20 14 20C15.3261 20 16.5979 19.4732 17.5355 18.5355C18.4732 17.5979 19 16.3261 19 15C19 13.6739 18.4732 12.4021 17.5355 11.4645C16.5979 10.5268 15.3261 10 14 10ZM11 15C11 14.2044 11.3161 13.4413 11.8787 12.8787C12.4413 12.3161 13.2044 12 14 12C14.7956 12 15.5587 12.3161 16.1213 12.8787C16.6839 13.4413 17 14.2044 17 15C17 15.7956 16.6839 16.5587 16.1213 17.1213C15.5587 17.6839 14.7956 18 14 18C13.2044 18 12.4413 17.6839 11.8787 17.1213C11.3161 16.5587 11 15.7956 11 15Z" fill="#DEF8FC"/>
<path id="Vector_2" fill-rule="evenodd" clip-rule="evenodd" d="M13.9667 0.666504C13.3734 0.666504 12.8787 0.666504 12.4734 0.693171C12.059 0.710424 11.6504 0.796021 11.264 0.946504C10.819 1.13062 10.4147 1.4006 10.074 1.74102C9.73336 2.08144 9.46311 2.48563 9.27869 2.9305C9.08536 3.39717 9.03336 3.8905 9.01203 4.4265C9.00989 4.62253 8.958 4.8148 8.86121 4.98529C8.76443 5.15577 8.62592 5.29887 8.45869 5.40117C8.28654 5.49517 8.09331 5.54388 7.89716 5.54271C7.70102 5.54155 7.50839 5.49055 7.33736 5.3945C6.86269 5.14384 6.40936 4.9425 5.90803 4.87584C5.43062 4.81304 4.94552 4.84489 4.48042 4.96957C4.01532 5.09426 3.57934 5.30933 3.19736 5.6025C2.87439 5.86234 2.59645 6.17362 2.37469 6.52384C2.14803 6.8625 1.90003 7.2905 1.60403 7.80384L1.57069 7.8625C1.27336 8.37584 1.02669 8.80384 0.848025 9.16917C0.661359 9.5505 0.514692 9.9265 0.461359 10.3425C0.334159 11.3065 0.595065 12.2815 1.18669 13.0532C1.49469 13.4545 1.89603 13.7465 2.34936 14.0318C2.51837 14.1318 2.65919 14.273 2.75855 14.4424C2.85792 14.6117 2.91257 14.8036 2.91736 14.9998C2.91257 15.1961 2.85792 15.388 2.75855 15.5573C2.65919 15.7266 2.51837 15.8679 2.34936 15.9678C1.89603 16.2532 1.49603 16.5452 1.18669 16.9465C0.893514 17.3285 0.678444 17.7645 0.553763 18.2296C0.429081 18.6947 0.397229 19.1798 0.460025 19.6572C0.514692 20.0732 0.660025 20.4492 0.846692 20.8305C1.02669 21.1958 1.27336 21.6238 1.57069 22.1372L1.60403 22.1958C1.90003 22.7092 2.14803 23.1372 2.37469 23.4758C2.61069 23.8265 2.86403 24.1425 3.19736 24.3958C3.57924 24.6892 4.01518 24.9046 4.48028 25.0295C4.94538 25.1544 5.43053 25.1864 5.90803 25.1238C6.40936 25.0572 6.86269 24.8572 7.33736 24.6052C7.50818 24.5092 7.70059 24.4583 7.8965 24.4571C8.09241 24.456 8.2854 24.5046 8.45736 24.5985C8.62552 24.7 8.76489 24.8429 8.86222 25.0135C8.95954 25.1841 9.01157 25.3768 9.01336 25.5732C9.03336 26.1092 9.08536 26.6025 9.28003 27.0692C9.46415 27.5142 9.73412 27.9185 10.0745 28.2592C10.415 28.5998 10.8191 28.8701 11.264 29.0545C11.6507 29.2145 12.0507 29.2772 12.4734 29.3052C12.8787 29.3332 13.3734 29.3332 13.9667 29.3332H14.0334C14.6267 29.3332 15.1214 29.3332 15.5267 29.3065C15.9507 29.2772 16.3494 29.2145 16.736 29.0532C17.181 28.8691 17.5854 28.5991 17.926 28.2587C18.2667 27.9182 18.5369 27.514 18.7214 27.0692C18.9147 26.6025 18.9667 26.1092 18.988 25.5732C18.9899 25.3769 19.0417 25.1844 19.1385 25.0136C19.2353 24.8429 19.3739 24.6996 19.5414 24.5972C19.7136 24.5034 19.9069 24.4549 20.1031 24.4563C20.2992 24.4577 20.4918 24.5089 20.6627 24.6052C21.1374 24.8558 21.5907 25.0572 22.092 25.1225C23.056 25.2497 24.0311 24.9888 24.8027 24.3972C25.136 24.1412 25.3894 23.8265 25.6254 23.4758C25.852 23.1372 26.1 22.7092 26.396 22.1958L26.4294 22.1372C26.7267 21.6238 26.9734 21.1958 27.152 20.8305C27.3387 20.4492 27.4854 20.0718 27.5387 19.6572C27.6659 18.6932 27.405 17.7181 26.8134 16.9465C26.5054 16.5452 26.104 16.2532 25.6507 15.9678C25.4817 15.8679 25.3409 15.7266 25.2415 15.5573C25.1421 15.388 25.0875 15.1961 25.0827 14.9998C25.0827 14.6292 25.2854 14.2612 25.6507 14.0318C26.104 13.7465 26.504 13.4545 26.8134 13.0532C27.1065 12.6712 27.3216 12.2352 27.4463 11.7701C27.571 11.305 27.6028 10.8199 27.54 10.3425C27.4766 9.93278 27.3459 9.53634 27.1534 9.16917C26.9257 8.72617 26.6843 8.2904 26.4294 7.8625L26.396 7.80384C26.1525 7.36929 25.8954 6.94241 25.6254 6.52384C25.4036 6.174 25.1257 5.86315 24.8027 5.60384C24.4208 5.31043 23.9849 5.09512 23.5198 4.97021C23.0547 4.84529 22.5695 4.81323 22.092 4.87584C21.5907 4.9425 21.1374 5.1425 20.6627 5.3945C20.4918 5.49031 20.2994 5.54118 20.1036 5.54235C19.9077 5.54351 19.7147 5.49494 19.5427 5.40117C19.375 5.29919 19.2359 5.15623 19.1387 4.98573C19.0414 4.81522 18.9891 4.62278 18.9867 4.4265C18.9667 3.8905 18.9147 3.39717 18.72 2.9305C18.5359 2.4855 18.2659 2.08113 17.9255 1.74049C17.5851 1.39984 17.1809 1.12959 16.736 0.945171C16.3494 0.785171 15.9494 0.722504 15.5267 0.694504C15.1214 0.666504 14.6267 0.666504 14.0334 0.666504H13.9667ZM12.0294 2.79317C12.132 2.7505 12.288 2.71184 12.6094 2.68917C12.9387 2.6665 13.3654 2.6665 14 2.6665C14.6347 2.6665 15.0614 2.6665 15.3907 2.68917C15.712 2.71184 15.868 2.7505 15.9707 2.79317C16.38 2.9625 16.704 3.2865 16.8734 3.69584C16.9267 3.82384 16.9707 4.02517 16.988 4.50117C17.028 5.55717 17.5734 6.5745 18.5414 7.13317C19.5094 7.69317 20.6627 7.65584 21.5974 7.1625C22.0187 6.93984 22.2147 6.87717 22.3534 6.85984C22.7914 6.80195 23.2346 6.92041 23.5854 7.18917C23.6734 7.25717 23.7854 7.37317 23.9654 7.63984C24.1507 7.9145 24.364 8.28384 24.6814 8.83317C24.9987 9.3825 25.2107 9.75317 25.356 10.0492C25.4987 10.3385 25.5427 10.4932 25.556 10.6038C25.6139 11.0419 25.4955 11.4851 25.2267 11.8358C25.1414 11.9465 24.9894 12.0852 24.5867 12.3385C23.6907 12.9012 23.0827 13.8825 23.0827 14.9998C23.0827 16.1172 23.6907 17.0985 24.5867 17.6612C24.9894 17.9145 25.1414 18.0532 25.2267 18.1638C25.496 18.5145 25.6134 18.9572 25.556 19.3958C25.5427 19.5065 25.4974 19.6625 25.356 19.9505C25.2107 20.2478 24.9987 20.6172 24.6814 21.1665C24.364 21.7158 24.1494 22.0852 23.9654 22.3598C23.7854 22.6265 23.6734 22.7425 23.5854 22.8105C23.2346 23.0793 22.7914 23.1977 22.3534 23.1398C22.2147 23.1225 22.02 23.0598 21.5974 22.8372C20.664 22.3438 19.5094 22.3065 18.5414 22.8652C17.5734 23.4252 17.028 24.4425 16.988 25.4985C16.9707 25.9745 16.9267 26.1758 16.8734 26.3038C16.7896 26.5062 16.6668 26.6901 16.5119 26.845C16.357 26.9999 16.1731 27.1227 15.9707 27.2065C15.868 27.2492 15.712 27.2878 15.3907 27.3105C15.0614 27.3332 14.6347 27.3332 14 27.3332C13.3654 27.3332 12.9387 27.3332 12.6094 27.3105C12.288 27.2878 12.132 27.2492 12.0294 27.2065C11.827 27.1227 11.6431 26.9999 11.4882 26.845C11.3333 26.6901 11.2105 26.5062 11.1267 26.3038C11.0734 26.1758 11.0294 25.9745 11.012 25.4985C10.972 24.4425 10.4267 23.4252 9.45869 22.8665C8.49069 22.3065 7.33736 22.3438 6.40269 22.8372C5.98136 23.0598 5.78536 23.1225 5.64669 23.1398C5.20861 23.1977 4.76546 23.0793 4.41469 22.8105C4.32669 22.7425 4.21469 22.6265 4.03469 22.3598C3.78391 21.9695 3.54513 21.5715 3.31869 21.1665C3.00136 20.6172 2.78936 20.2465 2.64403 19.9505C2.50136 19.6612 2.45736 19.5065 2.44403 19.3958C2.38614 18.9577 2.5046 18.5146 2.77336 18.1638C2.85869 18.0532 3.01069 17.9145 3.41336 17.6612C4.30936 17.0985 4.91736 16.1172 4.91736 14.9998C4.91736 13.8825 4.30936 12.9012 3.41336 12.3385C3.01069 12.0852 2.85869 11.9465 2.77336 11.8358C2.5046 11.4851 2.38614 11.0419 2.44403 10.6038C2.45736 10.4932 2.50269 10.3372 2.64403 10.0492C2.78936 9.75184 3.00136 9.3825 3.31869 8.83317C3.63603 8.28384 3.85069 7.9145 4.03469 7.63984C4.21469 7.37317 4.32669 7.25717 4.41469 7.18917C4.76546 6.92041 5.20861 6.80195 5.64669 6.85984C5.78536 6.87717 5.98003 6.93984 6.40269 7.1625C7.33603 7.65584 8.49069 7.69317 9.45869 7.13317C10.4267 6.5745 10.972 5.55717 11.012 4.50117C11.0294 4.02517 11.0734 3.82384 11.1267 3.69584C11.296 3.2865 11.62 2.9625 12.0294 2.79317Z" fill="#DEF8FC"/>
</g>
</svg>
