<svg width="30" height="28" viewBox="0 0 30 28" fill="none" xmlns="http://www.w3.org/2000/svg">
<g id="Group">
<path id="Vector" d="M1 18.2776V9.72206C1 7.45298 1.885 5.27685 3.4603 3.67237C5.03561 2.06789 7.17218 1.1665 9.4 1.1665H20.6C22.8278 1.1665 24.9644 2.06789 26.5397 3.67237C28.115 5.27685 29 7.45298 29 9.72206V18.2776C29 20.5467 28.115 22.7228 26.5397 24.3273C24.9644 25.9318 22.8278 26.8332 20.6 26.8332H9.4C7.17218 26.8332 5.03561 25.9318 3.4603 24.3273C1.885 22.7228 1 20.5467 1 18.2776Z" stroke="#DEF8FC" stroke-width="1.75"/>
<path id="Vector_2" d="M15 18.2777V9.72217H18.5001C19.057 9.72217 19.5911 9.94751 19.985 10.3486C20.3788 10.7498 20.6001 11.2938 20.6001 11.8611C20.6001 12.4283 20.3788 12.9724 19.985 13.3735C19.5911 13.7746 19.057 13.9999 18.5001 13.9999H15M10.8 9.72217V18.2777" stroke="#DEF8FC" stroke-width="1.75" stroke-linecap="round" stroke-linejoin="round"/>
</g>
</svg>
