<svg width="32" height="32" viewBox="0 0 32 32" fill="none" xmlns="http://www.w3.org/2000/svg">
<g id="solar:document-outline">
<path id="Vector" fill-rule="evenodd" clip-rule="evenodd" d="M14.592 1.6665H17.408C19.8587 1.6665 21.8 1.6665 23.3187 1.8705C24.8813 2.08117 26.1467 2.52384 27.1453 3.52117C28.1427 4.51984 28.5853 5.78517 28.796 7.34784C29 8.86784 29 10.8078 29 13.2585V18.7412C29 21.1918 29 23.1332 28.796 24.6518C28.5853 26.2145 28.1427 27.4798 27.1453 28.4785C26.1467 29.4758 24.8813 29.9185 23.3187 30.1292C21.7987 30.3332 19.8587 30.3332 17.408 30.3332H14.592C12.1413 30.3332 10.2 30.3332 8.68133 30.1292C7.11867 29.9185 5.85333 29.4758 4.85467 28.4785C3.85733 27.4798 3.41467 26.2145 3.204 24.6518C3 23.1318 3 21.1918 3 18.7412V13.2585C3 10.8078 3 8.8665 3.204 7.34784C3.41467 5.78517 3.85733 4.51984 4.85467 3.52117C5.85333 2.52384 7.11867 2.08117 8.68133 1.8705C10.2013 1.6665 12.1413 1.6665 14.592 1.6665ZM8.94667 3.85317C7.60533 4.03317 6.832 4.37184 6.26667 4.93584C5.704 5.49984 5.36533 6.27317 5.18533 7.6145C5.00133 8.98517 4.99867 10.7905 4.99867 13.3332V18.6665C4.99867 21.2092 5.00133 23.0158 5.18533 24.3865C5.36533 25.7265 5.704 26.4998 6.268 27.0638C6.832 27.6278 7.60533 27.9665 8.94667 28.1465C10.3173 28.3305 12.1227 28.3332 14.6653 28.3332H17.332C19.8747 28.3332 21.6813 28.3305 23.052 28.1465C24.392 27.9665 25.1653 27.6278 25.7293 27.0638C26.2933 26.4998 26.632 25.7265 26.812 24.3852C26.996 23.0158 26.9987 21.2092 26.9987 18.6665V13.3332C26.9987 10.7905 26.996 8.98517 26.812 7.61317C26.632 6.27317 26.2933 5.49984 25.7293 4.93584C25.1653 4.37184 24.392 4.03317 23.0507 3.85317C21.6813 3.66917 19.8747 3.6665 17.332 3.6665H14.6653C12.1227 3.6665 10.3187 3.66917 8.94667 3.85317ZM9.66667 13.3332C9.66667 13.068 9.77202 12.8136 9.95956 12.6261C10.1471 12.4385 10.4015 12.3332 10.6667 12.3332H21.3333C21.5986 12.3332 21.8529 12.4385 22.0404 12.6261C22.228 12.8136 22.3333 13.068 22.3333 13.3332C22.3333 13.5984 22.228 13.8527 22.0404 14.0403C21.8529 14.2278 21.5986 14.3332 21.3333 14.3332H10.6667C10.4015 14.3332 10.1471 14.2278 9.95956 14.0403C9.77202 13.8527 9.66667 13.5984 9.66667 13.3332ZM9.66667 18.6665C9.66667 18.4013 9.77202 18.1469 9.95956 17.9594C10.1471 17.7719 10.4015 17.6665 10.6667 17.6665H17.3333C17.5986 17.6665 17.8529 17.7719 18.0404 17.9594C18.228 18.1469 18.3333 18.4013 18.3333 18.6665C18.3333 18.9317 18.228 19.1861 18.0404 19.3736C17.8529 19.5611 17.5986 19.6665 17.3333 19.6665H10.6667C10.4015 19.6665 10.1471 19.5611 9.95956 19.3736C9.77202 19.1861 9.66667 18.9317 9.66667 18.6665Z" fill="#DEF8FC"/>
</g>
</svg>
