<svg width="32" height="32" viewBox="0 0 32 32" fill="none" xmlns="http://www.w3.org/2000/svg">
<g id="mic">
<path id="Vector" d="M16 18.6665C14.8888 18.6665 13.9444 18.2776 13.1666 17.4998C12.3888 16.7221 12 15.7776 12 14.6665V6.6665C12 5.55539 12.3888 4.61095 13.1666 3.83317C13.9444 3.05539 14.8888 2.6665 16 2.6665C17.1111 2.6665 18.0555 3.05539 18.8333 3.83317C19.6111 4.61095 20 5.55539 20 6.6665V14.6665C20 15.7776 19.6111 16.7221 18.8333 17.4998C18.0555 18.2776 17.1111 18.6665 16 18.6665ZM14.6666 27.9998V23.8998C12.3555 23.5887 10.4444 22.5554 8.93329 20.7998C7.42218 19.0443 6.66663 16.9998 6.66663 14.6665H9.33329C9.33329 16.5109 9.98352 18.0834 11.284 19.3838C12.5844 20.6843 14.1564 21.3341 16 21.3332C17.8444 21.3332 19.4168 20.6829 20.7173 19.3825C22.0177 18.0821 22.6675 16.5101 22.6666 14.6665H25.3333C25.3333 16.9998 24.5777 19.0443 23.0666 20.7998C21.5555 22.5554 19.6444 23.5887 17.3333 23.8998V27.9998H14.6666Z" fill="#DEF8FC"/>
</g>
</svg>
