<svg width="28" height="28" viewBox="0 0 28 28" fill="none" xmlns="http://www.w3.org/2000/svg">
<g id="Group">
<path id="Vector" d="M22.4853 22.4854C23.5996 21.3711 24.4835 20.0482 25.0866 18.5923C25.6896 17.1364 26 15.5759 26 14.0001C26 12.4242 25.6896 10.8638 25.0866 9.40784C24.4835 7.95193 23.5996 6.62905 22.4853 5.51474C21.371 4.40043 20.0481 3.51651 18.5922 2.91345C17.1363 2.31039 15.5758 2 14 2C12.4241 2 10.8636 2.31039 9.40772 2.91345C7.95181 3.51651 6.62893 4.40043 5.51462 5.51474C3.26417 7.76519 1.99988 10.8175 1.99988 14.0001C1.99988 17.1827 3.26417 20.235 5.51462 22.4854C7.76507 24.7359 10.8173 26.0001 14 26.0001C17.1826 26.0001 20.2348 24.7359 22.4853 22.4854Z" stroke="#DEF8FC" stroke-width="2.66667" stroke-linecap="round" stroke-linejoin="round"/>
<path id="Vector_2" d="M8.34265 19.6572C9.08554 20.4002 9.96751 20.9896 10.9382 21.3918C11.9089 21.7939 12.9493 22.0009 14 22.0009C15.0507 22.0009 16.0911 21.7939 17.0618 21.3918C18.0325 20.9896 18.9144 20.4002 19.6573 19.6572" stroke="#DEF8FC" stroke-width="2.66667" stroke-linecap="round" stroke-linejoin="round"/>
</g>
</svg>
