<svg width="32" height="32" viewBox="0 0 32 32" fill="none" xmlns="http://www.w3.org/2000/svg">
<g id="tabler:face-id">
<path id="Vector" d="M5.33337 10.6668V8.00016C5.33337 7.29292 5.61433 6.61464 6.11442 6.11454C6.61452 5.61445 7.2928 5.3335 8.00004 5.3335H10.6667M5.33337 21.3335V24.0002C5.33337 24.7074 5.61433 25.3857 6.11442 25.8858C6.61452 26.3859 7.2928 26.6668 8.00004 26.6668H10.6667M21.3334 5.3335H24C24.7073 5.3335 25.3856 5.61445 25.8857 6.11454C26.3858 6.61464 26.6667 7.29292 26.6667 8.00016V10.6668M21.3334 26.6668H24C24.7073 26.6668 25.3856 26.3859 25.8857 25.8858C26.3858 25.3857 26.6667 24.7074 26.6667 24.0002V21.3335M12 13.3335H12.0134M20 13.3335H20.0134M12.6667 20.0002C13.1012 20.4436 13.6198 20.7959 14.1922 21.0364C14.7646 21.277 15.3792 21.4008 16 21.4008C16.6209 21.4008 17.2355 21.277 17.8079 21.0364C18.3802 20.7959 18.8989 20.4436 19.3334 20.0002" stroke="#DEF8FC" stroke-width="2.66667" stroke-linecap="round" stroke-linejoin="round"/>
</g>
</svg>
