<svg xmlns="http://www.w3.org/2000/svg" width="32" height="32" viewBox="0 0 32 32" fill="none">
<path d="M5.33301 28V21.3333C5.33301 20.6 5.59434 19.972 6.11701 19.4493C6.63968 18.9267 7.26723 18.6658 7.99968 18.6667H23.9997C24.733 18.6667 25.361 18.928 25.8837 19.4507C26.4063 19.9733 26.6672 20.6009 26.6663 21.3333V28H5.33301ZM11.9997 17.3333C10.1552 17.3333 8.58279 16.6831 7.28234 15.3827C5.9819 14.0822 5.33212 12.5102 5.33301 10.6667C5.33301 8.82222 5.98323 7.24978 7.28368 5.94933C8.58412 4.64889 10.1561 3.99911 11.9997 4H19.9997C21.8441 4 23.4166 4.65022 24.717 5.95067C26.0175 7.25111 26.6672 8.82311 26.6663 10.6667C26.6663 12.5111 26.0161 14.0836 24.7157 15.384C23.4152 16.6844 21.8432 17.3342 19.9997 17.3333H11.9997ZM11.9997 12C12.3775 12 12.6943 11.872 12.9503 11.616C13.2063 11.36 13.3339 11.0436 13.333 10.6667C13.333 10.2889 13.205 9.972 12.949 9.716C12.693 9.46 12.3766 9.33245 11.9997 9.33333C11.6219 9.33333 11.305 9.46133 11.049 9.71733C10.793 9.97333 10.6655 10.2898 10.6663 10.6667C10.6663 11.0444 10.7943 11.3613 11.0503 11.6173C11.3063 11.8733 11.6228 12.0009 11.9997 12ZM19.9997 12C20.3775 12 20.6943 11.872 20.9503 11.616C21.2063 11.36 21.3339 11.0436 21.333 10.6667C21.333 10.2889 21.205 9.972 20.949 9.716C20.693 9.46 20.3766 9.33245 19.9997 9.33333C19.6219 9.33333 19.305 9.46133 19.049 9.71733C18.793 9.97333 18.6655 10.2898 18.6663 10.6667C18.6663 11.0444 18.7943 11.3613 19.0503 11.6173C19.3063 11.8733 19.6228 12.0009 19.9997 12Z" fill="#DEF8FC"/>
</svg>
