<svg xmlns="http://www.w3.org/2000/svg" width="32" height="32" viewBox="0 0 32 32" fill="none">
<path d="M14.1467 21.8237C14.4226 21.533 14.7539 21.3004 15.121 21.1398C15.4882 20.9791 15.8839 20.8936 16.2846 20.8884C16.6853 20.8831 17.0831 20.9581 17.4544 21.1091C17.8256 21.26 18.1629 21.4838 18.4463 21.7672C18.7297 22.0505 18.9535 22.3878 19.1044 22.7591C19.2553 23.1304 19.3304 23.5281 19.3251 23.9289C19.3198 24.3296 19.2344 24.7252 19.0737 25.0924C18.9131 25.4596 18.6805 25.7909 18.3898 26.0667C17.8243 26.6159 17.0654 26.9206 16.2772 26.9149C15.4889 26.9092 14.7346 26.5937 14.1771 26.0364C13.6195 25.4791 13.3036 24.7249 13.2976 23.9367C13.2915 23.1484 13.5958 22.3895 14.1447 21.8237H14.1467ZM8.93997 16.341C9.91144 15.3693 11.0648 14.5985 12.3342 14.0726C13.6036 13.5467 14.9642 13.276 16.3382 13.276C17.7123 13.276 19.0728 13.5467 20.3422 14.0726C21.6116 14.5985 22.765 15.3693 23.7365 16.341C24.6563 17.2628 25.4121 18.3905 25.938 19.5902C26.0434 19.8308 26.1004 20.0897 26.1058 20.3523C26.1111 20.6148 26.0647 20.8759 25.9692 21.1205C25.8737 21.3651 25.7309 21.5885 25.549 21.778C25.3672 21.9674 25.1497 22.1192 24.9092 22.2246C24.6687 22.33 24.4098 22.3871 24.1472 22.3924C23.8846 22.3978 23.6236 22.3514 23.379 22.2558C23.1343 22.1603 22.9109 22.0175 22.7215 21.8357C22.532 21.6538 22.3803 21.4364 22.2748 21.1959C21.9474 20.4428 21.4845 19.7563 20.9092 19.1703C19.6968 17.9581 18.0526 17.2771 16.3382 17.2771C14.6238 17.2771 12.9796 17.9581 11.7673 19.1703C11.1989 19.7474 10.7432 20.4256 10.4236 21.1699C10.3204 21.4135 10.1699 21.6342 9.98075 21.8193C9.79161 22.0043 9.56763 22.15 9.32178 22.2478C9.07594 22.3456 8.81313 22.3937 8.54857 22.3892C8.28401 22.3847 8.02298 22.3278 7.78059 22.2217C7.53821 22.1156 7.31929 21.9624 7.13653 21.771C6.95378 21.5797 6.81081 21.354 6.71593 21.107C6.62104 20.86 6.57612 20.5966 6.58377 20.3322C6.59141 20.0677 6.65148 19.8073 6.76048 19.5662C7.27955 18.3647 8.01876 17.2708 8.93997 16.341ZM4.84893 10.3604C6.35809 8.85117 8.14976 7.65397 10.1216 6.83717C12.0935 6.02038 14.2069 5.59998 16.3412 5.59998C18.4756 5.59998 20.589 6.02038 22.5609 6.83717C24.5327 7.65397 26.3244 8.85117 27.8335 10.3604C29.0452 11.5865 30.0596 12.9928 30.8408 14.5294C30.9603 14.7633 31.0326 15.0183 31.0535 15.2801C31.0744 15.5418 31.0435 15.8051 30.9626 16.055C30.8818 16.3048 30.7525 16.5362 30.5822 16.7361C30.4119 16.936 30.2039 17.1003 29.97 17.2198C29.7362 17.3393 29.4811 17.4115 29.2194 17.4324C28.9576 17.4533 28.6943 17.4224 28.4445 17.3416C28.1947 17.2607 27.9632 17.1315 27.7634 16.9611C27.5635 16.7908 27.3991 16.5828 27.2797 16.349C26.6886 15.1848 25.9218 14.1185 25.0062 13.1877C23.6374 11.8185 21.9637 10.793 20.1221 10.1955C18.2806 9.59792 16.3236 9.44526 14.4117 9.75C12.4997 10.0547 10.6872 10.8082 9.12264 11.9487C7.55809 13.0891 6.28606 14.5841 5.4108 16.311C5.29736 16.5535 5.13637 16.7708 4.93739 16.9499C4.7384 17.129 4.50548 17.2663 4.25242 17.3538C3.99936 17.4412 3.73132 17.4769 3.46421 17.4587C3.1971 17.4406 2.93634 17.369 2.69742 17.2482C2.45849 17.1274 2.24626 16.9598 2.07331 16.7555C1.90036 16.5511 1.77021 16.3141 1.69058 16.0585C1.61095 15.8029 1.58347 15.5339 1.60976 15.2674C1.63605 15.001 1.71558 14.7425 1.84364 14.5074C2.61853 12.9741 3.63304 11.5742 4.84893 10.3604Z" fill="#DEF8FC"/>
</svg>
