<svg width="259" height="571" viewBox="0 0 259 571" fill="none" xmlns="http://www.w3.org/2000/svg">
<g clip-path="url(#clip0_204_19830)">
<path d="M191.122 361.808C160.044 395.372 107.2 396.091 75.2208 363.385L24.7995 311.818C10.1837 296.87 2.00001 276.794 2.00001 255.888L2 49.3119C2.00001 5.00748 38.0072 -30.8599 82.3113 -30.6875L179.311 -30.3101C223.372 -30.1386 259 5.62805 259 49.6893L259 257.15C259 277.304 251.393 296.715 237.701 311.503L191.122 361.808Z" fill="#1F2432"/>
<path d="M96.3922 381.171C115.398 373.358 136.682 373.158 155.831 380.613L212.016 402.485C239.741 413.278 258 439.98 258 469.731C258 509.627 225.627 541.952 185.731 541.893L73.5466 541.727C33.4628 541.667 0.999993 509.156 0.999983 469.073C0.999977 439.616 18.7857 413.075 46.03 401.875L96.3922 381.171Z" fill="#1F2432"/>
<path d="M139.76 568.861C134.677 570.262 129.314 570.299 124.211 568.967L22.4231 542.398C9.21529 538.95 3.43624e-05 527.021 3.55557e-05 513.37L7.51575e-06 485.03C8.96523e-06 468.45 13.4496 455.013 30.0298 455.03L227.03 455.225C243.587 455.242 257 468.669 257 485.225L257 513.695C257 527.193 247.985 539.029 234.972 542.616L139.76 568.861Z" fill="#1F2432"/>
</g>
<defs>
<clipPath id="clip0_204_19830">
<rect width="259" height="571" fill="white"/>
</clipPath>
</defs>
</svg>
