<svg width="28" height="26" viewBox="0 0 28 26" fill="none" xmlns="http://www.w3.org/2000/svg">
<path d="M13.2453 13.1973C14.0773 14.0121 14.6781 15.0332 14.9861 16.1563C15.2942 17.2793 15.2985 18.464 14.9987 19.5893C14.6963 20.7162 14.1013 21.7432 13.274 22.566C12.4467 23.3888 11.4166 23.9783 10.288 24.2746C9.15821 24.5734 7.96967 24.5696 6.84181 24.2636C5.71395 23.9576 4.68649 23.3602 3.86267 22.5313C2.65452 21.2895 1.98527 19.6211 2.00037 17.8887C2.01548 16.1563 2.71371 14.4998 3.94333 13.2793C6.50267 10.7326 10.6407 10.6973 13.244 13.1986L13.2453 13.1973Z" stroke="#1E85FF" stroke-width="2.66667" stroke-linejoin="round"/>
<path d="M13.3333 12.9993L24.6667 1.66602" stroke="#1E85FF" stroke-width="2.66667" stroke-linecap="round" stroke-linejoin="round"/>
<path d="M18.2033 8.26641L21.8227 11.8664L26.0447 7.66641L22.426 4.06641L18.2033 8.26641Z" stroke="#1E85FF" stroke-width="2.66667" stroke-linejoin="round"/>
</svg>
