<svg width="32" height="32" viewBox="0 0 32 32" fill="none" xmlns="http://www.w3.org/2000/svg">
<path d="M16 2.66602C8.63999 2.66602 2.66666 8.63935 2.66666 15.9993C2.66666 23.3593 8.63999 29.3327 16 29.3327C23.36 29.3327 29.3333 23.3593 29.3333 15.9993C29.3333 8.63935 23.36 2.66602 16 2.66602ZM9.79999 24.666C11.5467 23.4127 13.68 22.666 16 22.666C18.32 22.666 20.4533 23.4127 22.2 24.666C20.4533 25.9193 18.32 26.666 16 26.666C13.68 26.666 11.5467 25.9193 9.79999 24.666ZM24.1867 22.826C21.8512 20.9936 18.9685 19.9978 16 19.9978C13.0315 19.9978 10.1488 20.9936 7.81332 22.826C6.20922 20.9131 5.33106 18.4958 5.33332 15.9993C5.33332 10.106 10.1067 5.33268 16 5.33268C21.8933 5.33268 26.6667 10.106 26.6667 15.9993C26.6667 18.5993 25.7333 20.9727 24.1867 22.826Z" fill="#1E85FF"/>
<path d="M16 8C13.4267 8 11.3333 10.0933 11.3333 12.6667C11.3333 15.24 13.4267 17.3333 16 17.3333C18.5733 17.3333 20.6667 15.24 20.6667 12.6667C20.6667 10.0933 18.5733 8 16 8ZM16 14.6667C14.8933 14.6667 14 13.7733 14 12.6667C14 11.56 14.8933 10.6667 16 10.6667C17.1067 10.6667 18 11.56 18 12.6667C18 13.7733 17.1067 14.6667 16 14.6667Z" fill="#1E85FF"/>
</svg>
