<svg width="32" height="32" viewBox="0 0 32 32" fill="none" xmlns="http://www.w3.org/2000/svg">
<path d="M10.6667 12.6667C10.2246 12.6667 9.80072 12.8423 9.48816 13.1548C9.17559 13.4674 9 13.8913 9 14.3333C9 14.7754 9.17559 15.1993 9.48816 15.5118C9.80072 15.8244 10.2246 16 10.6667 16C11.1087 16 11.5326 15.8244 11.8452 15.5118C12.1577 15.1993 12.3333 14.7754 12.3333 14.3333C12.3333 13.8913 12.1577 13.4674 11.8452 13.1548C11.5326 12.8423 11.1087 12.6667 10.6667 12.6667ZM16 12.6667C15.558 12.6667 15.134 12.8423 14.8215 13.1548C14.5089 13.4674 14.3333 13.8913 14.3333 14.3333C14.3333 14.7754 14.5089 15.1993 14.8215 15.5118C15.134 15.8244 15.558 16 16 16C16.442 16 16.866 15.8244 17.1785 15.5118C17.4911 15.1993 17.6667 14.7754 17.6667 14.3333C17.6667 13.8913 17.4911 13.4674 17.1785 13.1548C16.866 12.8423 16.442 12.6667 16 12.6667ZM19.6667 14.3333C19.6667 13.8913 19.8423 13.4674 20.1548 13.1548C20.4674 12.8423 20.8913 12.6667 21.3333 12.6667C21.7754 12.6667 22.1993 12.8423 22.5118 13.1548C22.8244 13.4674 23 13.8913 23 14.3333C23 14.7754 22.8244 15.1993 22.5118 15.5118C22.1993 15.8244 21.7754 16 21.3333 16C20.8913 16 20.4674 15.8244 20.1548 15.5118C19.8423 15.1993 19.6667 14.7754 19.6667 14.3333Z" fill="#DEF8FC"/>
<path fill-rule="evenodd" clip-rule="evenodd" d="M21.4667 6.124C17.8748 5.81766 14.2641 5.79982 10.6693 6.07067L10.412 6.09067C8.75921 6.2154 7.21455 6.95992 6.08736 8.17513C4.96018 9.39033 4.33368 10.9865 4.33334 12.644V24C4.33349 24.1729 4.37845 24.3428 4.46385 24.4931C4.54924 24.6434 4.67214 24.769 4.82055 24.8576C4.96897 24.9463 5.13783 24.9949 5.31066 24.9989C5.48349 25.0028 5.65439 24.9618 5.80667 24.88L11.02 22.0787C11.263 21.948 11.5347 21.8798 11.8107 21.88H23.7787C25.288 21.88 26.5813 20.8 26.852 19.316C27.4013 16.3067 27.444 13.2267 26.98 10.2027L26.844 9.31067C26.723 8.52242 26.3405 7.79774 25.758 7.25314C25.1754 6.70854 24.4266 6.37565 23.632 6.308L21.4667 6.124ZM10.8213 8.06534C14.3095 7.80215 17.8132 7.8191 21.2987 8.116L23.464 8.30134C24.1787 8.36267 24.76 8.90534 24.868 9.61467L25.0053 10.5053C25.4348 13.3098 25.3943 16.1662 24.8853 18.9573C24.8382 19.2162 24.7018 19.4503 24.4998 19.6189C24.2978 19.7875 24.0431 19.8799 23.78 19.88H11.8107C11.2048 19.8801 10.6083 20.0304 10.0747 20.3173L6.33334 22.328V12.6427C6.33341 11.4896 6.76906 10.3791 7.55306 9.5335C8.33706 8.68794 9.41153 8.16974 10.5613 8.08267L10.82 8.064L10.8213 8.06534Z" fill="#DEF8FC"/>
</svg>
