<svg width="32" height="32" viewBox="0 0 32 32" fill="none" xmlns="http://www.w3.org/2000/svg">
<path fill-rule="evenodd" clip-rule="evenodd" d="M14.592 1.66666H17.408C19.8587 1.66666 21.8 1.66666 23.3187 1.87066C24.8813 2.08132 26.1467 2.52399 27.1453 3.52132C28.1427 4.51999 28.5853 5.78532 28.796 7.34799C29 8.86799 29 10.808 29 13.2587V18.7413C29 21.192 29 23.1333 28.796 24.652C28.5853 26.2147 28.1427 27.48 27.1453 28.4787C26.1467 29.476 24.8813 29.9187 23.3187 30.1293C21.7987 30.3333 19.8587 30.3333 17.408 30.3333H14.592C12.1413 30.3333 10.2 30.3333 8.68133 30.1293C7.11867 29.9187 5.85333 29.476 4.85467 28.4787C3.85733 27.48 3.41467 26.2147 3.204 24.652C3 23.132 3 21.192 3 18.7413V13.2587C3 10.808 3 8.86666 3.204 7.34799C3.41467 5.78532 3.85733 4.51999 4.85467 3.52132C5.85333 2.52399 7.11867 2.08132 8.68133 1.87066C10.2013 1.66666 12.1413 1.66666 14.592 1.66666ZM8.94667 3.85332C7.60533 4.03332 6.832 4.37199 6.26667 4.93599C5.704 5.49999 5.36533 6.27332 5.18533 7.61466C5.00133 8.98532 4.99867 10.7907 4.99867 13.3333V18.6667C4.99867 21.2093 5.00133 23.016 5.18533 24.3867C5.36533 25.7267 5.704 26.5 6.268 27.064C6.832 27.628 7.60533 27.9667 8.94667 28.1467C10.3173 28.3307 12.1227 28.3333 14.6653 28.3333H17.332C19.8747 28.3333 21.6813 28.3307 23.052 28.1467C24.392 27.9667 25.1653 27.628 25.7293 27.064C26.2933 26.5 26.632 25.7267 26.812 24.3853C26.996 23.016 26.9987 21.2093 26.9987 18.6667V13.3333C26.9987 10.7907 26.996 8.98532 26.812 7.61332C26.632 6.27332 26.2933 5.49999 25.7293 4.93599C25.1653 4.37199 24.392 4.03332 23.0507 3.85332C21.6813 3.66932 19.8747 3.66666 17.332 3.66666H14.6653C12.1227 3.66666 10.3187 3.66932 8.94667 3.85332ZM9.66667 13.3333C9.66667 13.0681 9.77202 12.8138 9.95956 12.6262C10.1471 12.4387 10.4015 12.3333 10.6667 12.3333H21.3333C21.5986 12.3333 21.8529 12.4387 22.0404 12.6262C22.228 12.8138 22.3333 13.0681 22.3333 13.3333C22.3333 13.5985 22.228 13.8529 22.0404 14.0404C21.8529 14.228 21.5986 14.3333 21.3333 14.3333H10.6667C10.4015 14.3333 10.1471 14.228 9.95956 14.0404C9.77202 13.8529 9.66667 13.5985 9.66667 13.3333ZM9.66667 18.6667C9.66667 18.4014 9.77202 18.1471 9.95956 17.9595C10.1471 17.772 10.4015 17.6667 10.6667 17.6667H17.3333C17.5986 17.6667 17.8529 17.772 18.0404 17.9595C18.228 18.1471 18.3333 18.4014 18.3333 18.6667C18.3333 18.9319 18.228 19.1862 18.0404 19.3738C17.8529 19.5613 17.5986 19.6667 17.3333 19.6667H10.6667C10.4015 19.6667 10.1471 19.5613 9.95956 19.3738C9.77202 19.1862 9.66667 18.9319 9.66667 18.6667Z" fill="#DEF8FC"/>
</svg>
