<svg width="32" height="32" viewBox="0 0 32 32" fill="none" xmlns="http://www.w3.org/2000/svg">
<path d="M5.33334 10.6667V8.00001C5.33334 7.29277 5.61429 6.61449 6.11438 6.11439C6.61448 5.61429 7.29276 5.33334 8 5.33334H10.6667M5.33334 21.3333V24C5.33334 24.7073 5.61429 25.3855 6.11438 25.8856C6.61448 26.3857 7.29276 26.6667 8 26.6667H10.6667M21.3333 5.33334H24C24.7072 5.33334 25.3855 5.61429 25.8856 6.11439C26.3857 6.61449 26.6667 7.29277 26.6667 8.00001V10.6667M21.3333 26.6667H24C24.7072 26.6667 25.3855 26.3857 25.8856 25.8856C26.3857 25.3855 26.6667 24.7073 26.6667 24V21.3333M12 13.3333H12.0133M20 13.3333H20.0133M12.6667 20C13.1012 20.4435 13.6198 20.7958 14.1922 21.0363C14.7645 21.2768 15.3792 21.4007 16 21.4007C16.6209 21.4007 17.2355 21.2768 17.8078 21.0363C18.3802 20.7958 18.8988 20.4435 19.3333 20" stroke="#DEF8FC" stroke-width="2.66667" stroke-linecap="round" stroke-linejoin="round"/>
</svg>
