<svg width="32" height="32" viewBox="0 0 32 32" fill="none" xmlns="http://www.w3.org/2000/svg">
<path d="M20.1 12H19C18.4696 12 17.9609 12.2107 17.5858 12.5858C17.2107 12.9609 17 13.4696 17 14V18C17 19.0609 16.5786 20.0783 15.8284 20.8284C15.0783 21.5786 14.0609 22 13 22H11.9C11.6522 23.2141 10.9624 24.2928 9.96441 25.0272C8.96641 25.7616 7.73128 26.0992 6.49848 25.9747C5.26568 25.8502 4.12303 25.2723 3.29207 24.3532C2.4611 23.434 2.00102 22.2391 2.00102 21C2.00102 19.7609 2.4611 18.566 3.29207 17.6469C4.12303 16.7277 5.26568 16.1499 6.49848 16.0253C7.73128 15.9008 8.96641 16.2384 9.96441 16.9728C10.9624 17.7072 11.6522 18.786 11.9 20H13C13.5304 20 14.0391 19.7893 14.4142 19.4142C14.7893 19.0392 15 18.5304 15 18V14C15 12.9391 15.4214 11.9217 16.1716 11.1716C16.9217 10.4214 17.9391 10 19 10H20.1C20.3478 8.78597 21.0376 7.70719 22.0356 6.97281C23.0336 6.23844 24.2687 5.90079 25.5015 6.02533C26.7343 6.14987 27.877 6.72772 28.7079 7.64686C29.5389 8.56599 29.999 9.76093 29.999 11C29.999 12.2391 29.5389 13.434 28.7079 14.3532C27.877 15.2723 26.7343 15.8502 25.5015 15.9747C24.2687 16.0992 23.0336 15.7616 22.0356 15.0272C21.0376 14.2928 20.3478 13.2141 20.1 12Z" fill="#DEF8FC"/>
</svg>
