<svg width="32" height="32" viewBox="0 0 32 32" fill="none" xmlns="http://www.w3.org/2000/svg">
<path d="M15.2 24.2147L25.0613 14.3533C23.4022 13.6606 21.8954 12.6486 20.6267 11.3747C19.3522 10.1056 18.3396 8.59838 17.6467 6.93868L7.78534 16.8C7.01601 17.5693 6.63067 17.9547 6.3 18.3787C5.90948 18.879 5.57462 19.4205 5.30134 19.9933C5.07067 20.4787 4.89867 20.996 4.55467 22.028L2.73867 27.472C2.65509 27.7213 2.64269 27.9889 2.70286 28.2448C2.76304 28.5008 2.8934 28.7348 3.0793 28.9207C3.2652 29.1066 3.49927 29.237 3.75519 29.2972C4.01111 29.3573 4.27874 29.3449 4.52801 29.2613L9.97201 27.4453C11.0053 27.1013 11.5213 26.9293 12.0067 26.6987C12.58 26.4254 13.1213 26.0907 13.6213 25.7C14.0453 25.3693 14.4307 24.984 15.2 24.2147ZM27.7973 11.6173C28.7806 10.6341 29.333 9.30053 29.333 7.91001C29.333 6.51949 28.7806 5.18593 27.7973 4.20268C26.8141 3.21943 25.4805 2.66705 24.09 2.66705C22.6995 2.66705 21.3659 3.21943 20.3827 4.20268L19.2 5.38535L19.2507 5.53335C19.8335 7.20097 20.7872 8.71455 22.04 9.96001C23.3227 11.2503 24.8893 12.2228 26.6147 12.8L27.7973 11.6173Z" fill="#1E85FF"/>
</svg>
