<svg width="32" height="32" viewBox="0 0 32 32" fill="none" xmlns="http://www.w3.org/2000/svg">
<path d="M15.2002 24.2147L25.0615 14.3533C23.4024 13.6606 21.8956 12.6486 20.6269 11.3747C19.3524 10.1056 18.3398 8.59838 17.6469 6.93868L7.78552 16.8C7.01619 17.5693 6.63085 17.9547 6.30019 18.3787C5.90966 18.879 5.5748 19.4205 5.30152 19.9933C5.07086 20.4787 4.89885 20.996 4.55485 22.028L2.73885 27.472C2.65527 27.7213 2.64287 27.9889 2.70305 28.2448C2.76322 28.5008 2.89358 28.7348 3.07948 28.9207C3.26538 29.1066 3.49945 29.237 3.75537 29.2972C4.01129 29.3573 4.27893 29.3449 4.52819 29.2613L9.97219 27.4453C11.0055 27.1013 11.5215 26.9293 12.0069 26.6987C12.5802 26.4254 13.1215 26.0907 13.6215 25.7C14.0455 25.3693 14.4309 24.984 15.2002 24.2147ZM27.7975 11.6173C28.7808 10.6341 29.3332 9.30053 29.3332 7.91001C29.3332 6.51949 28.7808 5.18593 27.7975 4.20268C26.8143 3.21943 25.4807 2.66705 24.0902 2.66705C22.6997 2.66705 21.3661 3.21943 20.3829 4.20268L19.2002 5.38535L19.2509 5.53335C19.8337 7.20097 20.7874 8.71455 22.0402 9.96001C23.3229 11.2503 24.8895 12.2228 26.6149 12.8L27.7975 11.6173Z" fill="#DEF8FC"/>
</svg>
