<svg width="32" height="32" viewBox="0 0 32 32" fill="none" xmlns="http://www.w3.org/2000/svg">
<path d="M8.31244 27.5C7.9287 27.4993 7.55176 27.3987 7.21869 27.2081C6.46869 26.7831 6.00244 25.9581 6.00244 25.0625V6.93749C6.00244 6.03936 6.46869 5.21686 7.21869 4.79186C7.55969 4.59589 7.94708 4.4951 8.34035 4.50005C8.73363 4.505 9.11835 4.61549 9.45432 4.81999L24.9449 14.0925C25.2678 14.2949 25.5339 14.576 25.7184 14.9094C25.9029 15.2429 25.9997 15.6177 25.9997 15.9987C25.9997 16.3798 25.9029 16.7546 25.7184 17.088C25.5339 17.4214 25.2678 17.7026 24.9449 17.905L9.45182 27.18C9.108 27.3878 8.7142 27.4984 8.31244 27.5Z" fill="#DEF8FC"/>
</svg>
