<svg width="32" height="32" viewBox="0 0 32 32" fill="none" xmlns="http://www.w3.org/2000/svg">
<path d="M9.25 3V8.20833C9.25 9.03713 9.57924 9.83199 10.1653 10.418C10.7513 11.0041 11.5462 11.3333 12.375 11.3333H16.5417C17.3705 11.3333 18.1653 11.0041 18.7514 10.418C19.3374 9.83199 19.6667 9.03713 19.6667 8.20833V3H20.4562C21.5612 3.00024 22.6209 3.43938 23.4021 4.22083L26.7792 7.59792C27.5606 8.37914 27.9998 9.43877 28 10.5437V23.8333C28 24.9384 27.561 25.9982 26.7796 26.7796C25.9982 27.561 24.9384 28 23.8333 28V18.625C23.8333 17.7962 23.5041 17.0013 22.918 16.4153C22.332 15.8292 21.5371 15.5 20.7083 15.5H10.2917C8.56875 15.5 7.16667 16.8938 7.16667 18.6208V28C6.0616 28 5.00179 27.561 4.22039 26.7796C3.43899 25.9982 3 24.9384 3 23.8333V7.16667C3 6.0616 3.43899 5.00179 4.22039 4.22039C5.00179 3.43899 6.0616 3 7.16667 3H9.25ZM11.3333 3V8.20833C11.3333 8.4846 11.4431 8.74955 11.6384 8.9449C11.8338 9.14025 12.0987 9.25 12.375 9.25H16.5417C16.8179 9.25 17.0829 9.14025 17.2782 8.9449C17.4736 8.74955 17.5833 8.4846 17.5833 8.20833V3H11.3333ZM9.25 28H21.75V18.625C21.75 18.3487 21.6403 18.0838 21.4449 17.8884C21.2496 17.6931 20.9846 17.5833 20.7083 17.5833H10.2917C9.71458 17.5833 9.25 18.0479 9.25 18.6208V28Z" fill="#DEF8FC"/>
</svg>
