<svg width="32" height="32" viewBox="0 0 32 32" fill="none" xmlns="http://www.w3.org/2000/svg">
<path fill-rule="evenodd" clip-rule="evenodd" d="M16 11C14.6739 11 13.4021 11.5268 12.4645 12.4645C11.5268 13.4021 11 14.6739 11 16C11 17.3261 11.5268 18.5979 12.4645 19.5355C13.4021 20.4732 14.6739 21 16 21C17.3261 21 18.5979 20.4732 19.5355 19.5355C20.4732 18.5979 21 17.3261 21 16C21 14.6739 20.4732 13.4021 19.5355 12.4645C18.5979 11.5268 17.3261 11 16 11ZM13 16C13 15.2044 13.3161 14.4413 13.8787 13.8787C14.4413 13.3161 15.2044 13 16 13C16.7956 13 17.5587 13.3161 18.1213 13.8787C18.6839 14.4413 19 15.2044 19 16C19 16.7956 18.6839 17.5587 18.1213 18.1213C17.5587 18.6839 16.7956 19 16 19C15.2044 19 14.4413 18.6839 13.8787 18.1213C13.3161 17.5587 13 16.7956 13 16Z" fill="#1E85FF"/>
<path fill-rule="evenodd" clip-rule="evenodd" d="M15.9667 1.66669C15.3734 1.66669 14.8787 1.66669 14.4734 1.69335C14.059 1.71061 13.6504 1.7962 13.264 1.94669C12.819 2.13081 12.4147 2.40078 12.074 2.7412C11.7334 3.08162 11.4631 3.48581 11.2787 3.93069C11.0854 4.39735 11.0334 4.89069 11.012 5.42669C11.0099 5.62271 10.958 5.81499 10.8612 5.98547C10.7644 6.15595 10.6259 6.29905 10.4587 6.40135C10.2865 6.49536 10.0933 6.54406 9.89716 6.5429C9.70102 6.54173 9.50839 6.49073 9.33736 6.39469C8.86269 6.14402 8.40936 5.94269 7.90803 5.87602C7.43062 5.81322 6.94552 5.84508 6.48042 5.96976C6.01532 6.09444 5.57934 6.30951 5.19736 6.60269C4.87439 6.86253 4.59645 7.17381 4.37469 7.52402C4.14803 7.86269 3.90003 8.29069 3.60403 8.80402L3.57069 8.86269C3.27336 9.37602 3.02669 9.80402 2.84803 10.1694C2.66136 10.5507 2.51469 10.9267 2.46136 11.3427C2.33416 12.3067 2.59506 13.2817 3.18669 14.0534C3.49469 14.4547 3.89603 14.7467 4.34936 15.032C4.51837 15.1319 4.65919 15.2732 4.75855 15.4426C4.85792 15.6119 4.91257 15.8037 4.91736 16C4.91257 16.1963 4.85792 16.3881 4.75855 16.5575C4.65919 16.7268 4.51837 16.8681 4.34936 16.968C3.89603 17.2534 3.49603 17.5454 3.18669 17.9467C2.89351 18.3287 2.67844 18.7647 2.55376 19.2297C2.42908 19.6948 2.39723 20.1799 2.46003 20.6574C2.51469 21.0734 2.66003 21.4494 2.84669 21.8307C3.02669 22.196 3.27336 22.624 3.57069 23.1374L3.60403 23.196C3.90003 23.7094 4.14803 24.1374 4.37469 24.476C4.61069 24.8267 4.86403 25.1427 5.19736 25.396C5.57924 25.6894 6.01518 25.9047 6.48028 26.0297C6.94538 26.1546 7.43053 26.1866 7.90803 26.124C8.40936 26.0574 8.86269 25.8574 9.33736 25.6054C9.50818 25.5094 9.70059 25.4585 9.8965 25.4573C10.0924 25.4562 10.2854 25.5048 10.4574 25.5987C10.6255 25.7002 10.7649 25.843 10.8622 26.0137C10.9595 26.1843 11.0116 26.3769 11.0134 26.5734C11.0334 27.1094 11.0854 27.6027 11.28 28.0694C11.4641 28.5144 11.7341 28.9187 12.0745 29.2594C12.415 29.6 12.8191 29.8703 13.264 30.0547C13.6507 30.2147 14.0507 30.2774 14.4734 30.3054C14.8787 30.3334 15.3734 30.3334 15.9667 30.3334H16.0334C16.6267 30.3334 17.1214 30.3334 17.5267 30.3067C17.9507 30.2774 18.3494 30.2147 18.736 30.0534C19.181 29.8692 19.5854 29.5993 19.926 29.2588C20.2667 28.9184 20.5369 28.5142 20.7214 28.0694C20.9147 27.6027 20.9667 27.1094 20.988 26.5734C20.9899 26.3771 21.0417 26.1846 21.1385 26.0138C21.2353 25.8431 21.3739 25.6998 21.5414 25.5974C21.7136 25.5036 21.9069 25.4551 22.1031 25.4565C22.2992 25.4579 22.4918 25.5091 22.6627 25.6054C23.1374 25.856 23.5907 26.0574 24.092 26.1227C25.056 26.2499 26.0311 25.989 26.8027 25.3974C27.136 25.1414 27.3894 24.8267 27.6254 24.476C27.852 24.1374 28.1 23.7094 28.396 23.196L28.4294 23.1374C28.7267 22.624 28.9734 22.196 29.152 21.8307C29.3387 21.4494 29.4854 21.072 29.5387 20.6574C29.6659 19.6934 29.405 18.7183 28.8134 17.9467C28.5054 17.5454 28.104 17.2534 27.6507 16.968C27.4817 16.8681 27.3409 16.7268 27.2415 16.5575C27.1421 16.3881 27.0875 16.1963 27.0827 16C27.0827 15.6294 27.2854 15.2614 27.6507 15.032C28.104 14.7467 28.504 14.4547 28.8134 14.0534C29.1065 13.6714 29.3216 13.2354 29.4463 12.7703C29.571 12.3052 29.6028 11.8201 29.54 11.3427C29.4766 10.933 29.3459 10.5365 29.1534 10.1694C28.9257 9.72635 28.6843 9.29058 28.4294 8.86269L28.396 8.80402C28.1525 8.36947 27.8954 7.9426 27.6254 7.52402C27.4036 7.17418 27.1257 6.86333 26.8027 6.60402C26.4208 6.31061 25.9849 6.0953 25.5198 5.97039C25.0547 5.84548 24.5695 5.81341 24.092 5.87602C23.5907 5.94269 23.1374 6.14269 22.6627 6.39469C22.4918 6.49049 22.2994 6.54136 22.1036 6.54253C21.9077 6.54369 21.7147 6.49512 21.5427 6.40135C21.375 6.29938 21.2359 6.15641 21.1387 5.98591C21.0414 5.81541 20.9891 5.62297 20.9867 5.42669C20.9667 4.89069 20.9147 4.39735 20.72 3.93069C20.5359 3.48569 20.2659 3.08132 19.9255 2.74067C19.5851 2.40002 19.1809 2.12977 18.736 1.94535C18.3494 1.78535 17.9494 1.72269 17.5267 1.69469C17.1214 1.66669 16.6267 1.66669 16.0334 1.66669H15.9667ZM14.0294 3.79335C14.132 3.75069 14.288 3.71202 14.6094 3.68935C14.9387 3.66669 15.3654 3.66669 16 3.66669C16.6347 3.66669 17.0614 3.66669 17.3907 3.68935C17.712 3.71202 17.868 3.75069 17.9707 3.79335C18.38 3.96269 18.704 4.28669 18.8734 4.69602C18.9267 4.82402 18.9707 5.02535 18.988 5.50135C19.028 6.55735 19.5734 7.57469 20.5414 8.13335C21.5094 8.69335 22.6627 8.65602 23.5974 8.16269C24.0187 7.94002 24.2147 7.87735 24.3534 7.86002C24.7914 7.80213 25.2346 7.92059 25.5854 8.18935C25.6734 8.25735 25.7854 8.37335 25.9654 8.64002C26.1507 8.91469 26.364 9.28402 26.6814 9.83335C26.9987 10.3827 27.2107 10.7534 27.356 11.0494C27.4987 11.3387 27.5427 11.4934 27.556 11.604C27.6139 12.0421 27.4955 12.4853 27.2267 12.836C27.1414 12.9467 26.9894 13.0854 26.5867 13.3387C25.6907 13.9014 25.0827 14.8827 25.0827 16C25.0827 17.1174 25.6907 18.0987 26.5867 18.6614C26.9894 18.9147 27.1414 19.0534 27.2267 19.164C27.496 19.5147 27.6134 19.9574 27.556 20.396C27.5427 20.5067 27.4974 20.6627 27.356 20.9507C27.2107 21.248 26.9987 21.6174 26.6814 22.1667C26.364 22.716 26.1494 23.0854 25.9654 23.36C25.7854 23.6267 25.6734 23.7427 25.5854 23.8107C25.2346 24.0794 24.7914 24.1979 24.3534 24.14C24.2147 24.1227 24.02 24.06 23.5974 23.8374C22.664 23.344 21.5094 23.3067 20.5414 23.8654C19.5734 24.4254 19.028 25.4427 18.988 26.4987C18.9707 26.9747 18.9267 27.176 18.8734 27.304C18.7896 27.5064 18.6668 27.6903 18.5119 27.8452C18.357 28.0001 18.1731 28.1229 17.9707 28.2067C17.868 28.2494 17.712 28.288 17.3907 28.3107C17.0614 28.3334 16.6347 28.3334 16 28.3334C15.3654 28.3334 14.9387 28.3334 14.6094 28.3107C14.288 28.288 14.132 28.2494 14.0294 28.2067C13.827 28.1229 13.6431 28.0001 13.4882 27.8452C13.3333 27.6903 13.2105 27.5064 13.1267 27.304C13.0734 27.176 13.0294 26.9747 13.012 26.4987C12.972 25.4427 12.4267 24.4254 11.4587 23.8667C10.4907 23.3067 9.33736 23.344 8.40269 23.8374C7.98136 24.06 7.78536 24.1227 7.64669 24.14C7.20861 24.1979 6.76546 24.0794 6.41469 23.8107C6.32669 23.7427 6.21469 23.6267 6.03469 23.36C5.78391 22.9696 5.54513 22.5717 5.31869 22.1667C5.00136 21.6174 4.78936 21.2467 4.64403 20.9507C4.50136 20.6614 4.45736 20.5067 4.44403 20.396C4.38614 19.9579 4.5046 19.5148 4.77336 19.164C4.85869 19.0534 5.01069 18.9147 5.41336 18.6614C6.30936 18.0987 6.91736 17.1174 6.91736 16C6.91736 14.8827 6.30936 13.9014 5.41336 13.3387C5.01069 13.0854 4.85869 12.9467 4.77336 12.836C4.5046 12.4853 4.38614 12.0421 4.44403 11.604C4.45736 11.4934 4.50269 11.3374 4.64403 11.0494C4.78936 10.752 5.00136 10.3827 5.31869 9.83335C5.63603 9.28402 5.85069 8.91469 6.03469 8.64002C6.21469 8.37335 6.32669 8.25735 6.41469 8.18935C6.76546 7.92059 7.20861 7.80213 7.64669 7.86002C7.78536 7.87735 7.98003 7.94002 8.40269 8.16269C9.33603 8.65602 10.4907 8.69335 11.4587 8.13335C12.4267 7.57469 12.972 6.55735 13.012 5.50135C13.0294 5.02535 13.0734 4.82402 13.1267 4.69602C13.296 4.28669 13.62 3.96269 14.0294 3.79335Z" fill="#1E85FF"/>
</svg>
