<svg width="32" height="32" viewBox="0 0 32 32" fill="current" xmlns="http://www.w3.org/2000/svg">
<path d="M23.6133 12.9466C23.7383 12.8226 23.8375 12.6752 23.9051 12.5127C23.9728 12.3502 24.0077 12.1759 24.0077 11.9999C24.0077 11.8239 23.9728 11.6496 23.9051 11.4871C23.8375 11.3247 23.7383 11.1772 23.6133 11.0533L16.9466 4.38658C16.8227 4.26161 16.6752 4.16242 16.5127 4.09473C16.3502 4.02704 16.176 3.99219 16 3.99219C15.8239 3.99219 15.6497 4.02704 15.4872 4.09473C15.3247 4.16242 15.1772 4.26161 15.0533 4.38658L8.38663 11.0533C8.26166 11.1772 8.16246 11.3247 8.09477 11.4871C8.02708 11.6496 7.99223 11.8239 7.99223 11.9999C7.99223 12.1759 8.02708 12.3502 8.09477 12.5127C8.16246 12.6752 8.26166 12.8226 8.38663 12.9466C8.51058 13.0716 8.65804 13.1707 8.82052 13.2384C8.983 13.3061 9.15728 13.341 9.33329 13.341C9.50931 13.341 9.68358 13.3061 9.84606 13.2384C10.0085 13.1707 10.156 13.0716 10.28 12.9466L16 7.21325L21.72 12.9466C21.8439 13.0716 21.9914 13.1707 22.1539 13.2384C22.3163 13.3061 22.4906 13.341 22.6666 13.341C22.8426 13.341 23.0169 13.3061 23.1794 13.2384C23.3419 13.1707 23.4893 13.0716 23.6133 12.9466ZM16.9466 27.6133L23.6133 20.9466C23.7376 20.8223 23.8362 20.6747 23.9035 20.5123C23.9708 20.3498 24.0054 20.1757 24.0054 19.9999C24.0054 19.6448 23.8644 19.3043 23.6133 19.0533C23.489 18.9289 23.3414 18.8303 23.179 18.763C23.0165 18.6958 22.8424 18.6611 22.6666 18.6611C22.3116 18.6611 21.971 18.8022 21.72 19.0533L16 24.7866L10.28 19.0533C10.156 18.9283 10.0085 18.8291 9.84606 18.7614C9.68358 18.6937 9.50931 18.6589 9.33329 18.6589C9.15728 18.6589 8.983 18.6937 8.82052 18.7614C8.65804 18.8291 8.51058 18.9283 8.38663 19.0533C8.26166 19.1772 8.16246 19.3247 8.09477 19.4871C8.02708 19.6496 7.99223 19.8239 7.99223 19.9999C7.99223 20.1759 8.02708 20.3502 8.09477 20.5127C8.16246 20.6752 8.26166 20.8226 8.38663 20.9466L15.0533 27.6133C15.1772 27.7382 15.3247 27.8374 15.4872 27.9051C15.6497 27.9728 15.8239 28.0077 16 28.0077C16.176 28.0077 16.3502 27.9728 16.5127 27.9051C16.6752 27.8374 16.8227 27.7382 16.9466 27.6133Z" fill="current"/>
</svg>
