<svg width="32" height="32" viewBox="0 0 32 32" fill="none" xmlns="http://www.w3.org/2000/svg">
<path d="M20.2667 6.4C19.9838 6.4 19.7124 6.28762 19.5124 6.08758C19.3124 5.88754 19.2 5.61623 19.2 5.33333C19.2 5.05043 19.3124 4.77912 19.5124 4.57908C19.7124 4.37904 19.9838 4.26666 20.2667 4.26666C20.5496 4.26666 20.8209 4.37904 21.0209 4.57908C21.2209 4.77912 21.3333 5.05043 21.3333 5.33333C21.3333 5.61623 21.2209 5.88754 21.0209 6.08758C20.8209 6.28762 20.5496 6.4 20.2667 6.4ZM20.2667 17.0667C19.9838 17.0667 19.7124 16.9543 19.5124 16.7542C19.3124 16.5542 19.2 16.2829 19.2 16C19.2 15.7171 19.3124 15.4458 19.5124 15.2457C19.7124 15.0457 19.9838 14.9333 20.2667 14.9333C20.5496 14.9333 20.8209 15.0457 21.0209 15.2457C21.2209 15.4458 21.3333 15.7171 21.3333 16C21.3333 16.2829 21.2209 16.5542 21.0209 16.7542C20.8209 16.9543 20.5496 17.0667 20.2667 17.0667ZM20.2667 27.7333C19.9838 27.7333 19.7124 27.621 19.5124 27.4209C19.3124 27.2209 19.2 26.9496 19.2 26.6667C19.2 26.3838 19.3124 26.1125 19.5124 25.9124C19.7124 25.7124 19.9838 25.6 20.2667 25.6C20.5496 25.6 20.8209 25.7124 21.0209 25.9124C21.2209 26.1125 21.3333 26.3838 21.3333 26.6667C21.3333 26.9496 21.2209 27.2209 21.0209 27.4209C20.8209 27.621 20.5496 27.7333 20.2667 27.7333ZM11.7333 6.4C11.4504 6.4 11.1791 6.28762 10.9791 6.08758C10.779 5.88754 10.6667 5.61623 10.6667 5.33333C10.6667 5.05043 10.779 4.77912 10.9791 4.57908C11.1791 4.37904 11.4504 4.26666 11.7333 4.26666C12.0162 4.26666 12.2875 4.37904 12.4876 4.57908C12.6876 4.77912 12.8 5.05043 12.8 5.33333C12.8 5.61623 12.6876 5.88754 12.4876 6.08758C12.2875 6.28762 12.0162 6.4 11.7333 6.4ZM11.7333 17.0667C11.4504 17.0667 11.1791 16.9543 10.9791 16.7542C10.779 16.5542 10.6667 16.2829 10.6667 16C10.6667 15.7171 10.779 15.4458 10.9791 15.2457C11.1791 15.0457 11.4504 14.9333 11.7333 14.9333C12.0162 14.9333 12.2875 15.0457 12.4876 15.2457C12.6876 15.4458 12.8 15.7171 12.8 16C12.8 16.2829 12.6876 16.5542 12.4876 16.7542C12.2875 16.9543 12.0162 17.0667 11.7333 17.0667ZM11.7333 27.7333C11.4504 27.7333 11.1791 27.621 10.9791 27.4209C10.779 27.2209 10.6667 26.9496 10.6667 26.6667C10.6667 26.3838 10.779 26.1125 10.9791 25.9124C11.1791 25.7124 11.4504 25.6 11.7333 25.6C12.0162 25.6 12.2875 25.7124 12.4876 25.9124C12.6876 26.1125 12.8 26.3838 12.8 26.6667C12.8 26.9496 12.6876 27.2209 12.4876 27.4209C12.2875 27.621 12.0162 27.7333 11.7333 27.7333Z" stroke="#1E85FF" stroke-width="2.13333"/>
</svg>
