<svg width="32" height="32" viewBox="0 0 32 32" fill="none" xmlns="http://www.w3.org/2000/svg">
<path d="M20.2665 6.4C19.9836 6.4 19.7123 6.28762 19.5123 6.08758C19.3122 5.88754 19.1998 5.61623 19.1998 5.33333C19.1998 5.05043 19.3122 4.77912 19.5123 4.57908C19.7123 4.37904 19.9836 4.26666 20.2665 4.26666C20.5494 4.26666 20.8207 4.37904 21.0208 4.57908C21.2208 4.77912 21.3332 5.05043 21.3332 5.33333C21.3332 5.61623 21.2208 5.88754 21.0208 6.08758C20.8207 6.28762 20.5494 6.4 20.2665 6.4ZM20.2665 17.0667C19.9836 17.0667 19.7123 16.9543 19.5123 16.7542C19.3122 16.5542 19.1998 16.2829 19.1998 16C19.1998 15.7171 19.3122 15.4458 19.5123 15.2457C19.7123 15.0457 19.9836 14.9333 20.2665 14.9333C20.5494 14.9333 20.8207 15.0457 21.0208 15.2457C21.2208 15.4458 21.3332 15.7171 21.3332 16C21.3332 16.2829 21.2208 16.5542 21.0208 16.7542C20.8207 16.9543 20.5494 17.0667 20.2665 17.0667ZM20.2665 27.7333C19.9836 27.7333 19.7123 27.621 19.5123 27.4209C19.3122 27.2209 19.1998 26.9496 19.1998 26.6667C19.1998 26.3838 19.3122 26.1125 19.5123 25.9124C19.7123 25.7124 19.9836 25.6 20.2665 25.6C20.5494 25.6 20.8207 25.7124 21.0208 25.9124C21.2208 26.1125 21.3332 26.3838 21.3332 26.6667C21.3332 26.9496 21.2208 27.2209 21.0208 27.4209C20.8207 27.621 20.5494 27.7333 20.2665 27.7333ZM11.7332 6.4C11.4503 6.4 11.179 6.28762 10.9789 6.08758C10.7789 5.88754 10.6665 5.61623 10.6665 5.33333C10.6665 5.05043 10.7789 4.77912 10.9789 4.57908C11.179 4.37904 11.4503 4.26666 11.7332 4.26666C12.0161 4.26666 12.2874 4.37904 12.4874 4.57908C12.6875 4.77912 12.7998 5.05043 12.7998 5.33333C12.7998 5.61623 12.6875 5.88754 12.4874 6.08758C12.2874 6.28762 12.0161 6.4 11.7332 6.4ZM11.7332 17.0667C11.4503 17.0667 11.179 16.9543 10.9789 16.7542C10.7789 16.5542 10.6665 16.2829 10.6665 16C10.6665 15.7171 10.7789 15.4458 10.9789 15.2457C11.179 15.0457 11.4503 14.9333 11.7332 14.9333C12.0161 14.9333 12.2874 15.0457 12.4874 15.2457C12.6875 15.4458 12.7998 15.7171 12.7998 16C12.7998 16.2829 12.6875 16.5542 12.4874 16.7542C12.2874 16.9543 12.0161 17.0667 11.7332 17.0667ZM11.7332 27.7333C11.4503 27.7333 11.179 27.621 10.9789 27.4209C10.7789 27.2209 10.6665 26.9496 10.6665 26.6667C10.6665 26.3838 10.7789 26.1125 10.9789 25.9124C11.179 25.7124 11.4503 25.6 11.7332 25.6C12.0161 25.6 12.2874 25.7124 12.4874 25.9124C12.6875 26.1125 12.7998 26.3838 12.7998 26.6667C12.7998 26.9496 12.6875 27.2209 12.4874 27.4209C12.2874 27.621 12.0161 27.7333 11.7332 27.7333Z" stroke="#DEF8FC" stroke-width="2.13333"/>
</svg>
