<svg width="32" height="32" viewBox="0 0 32 32" fill="none" xmlns="http://www.w3.org/2000/svg">
<path d="M15.982 13.8153L10.782 18.9819C10.5375 19.2264 10.2317 19.3544 9.86463 19.3659C9.49752 19.3775 9.18108 19.2495 8.9153 18.9819C8.67085 18.7375 8.54863 18.4264 8.54863 18.0486C8.54863 17.6708 8.67085 17.3597 8.9153 17.1153L14.082 11.9486C14.5931 11.4375 15.2264 11.1819 15.982 11.1819C16.7375 11.1819 17.3709 11.4375 17.882 11.9486L23.0486 17.1153C23.2931 17.3597 23.4211 17.665 23.4326 18.0313C23.4442 18.3975 23.3162 18.7144 23.0486 18.9819C22.8042 19.2264 22.4931 19.3486 22.1153 19.3486C21.7375 19.3486 21.4264 19.2264 21.182 18.9819L15.982 13.8153Z" fill="#1E85FF"/>
</svg>
