<svg width="32" height="32" viewBox="0 0 32 32" fill="none" xmlns="http://www.w3.org/2000/svg">
<path d="M15.9817 13.8153L10.7817 18.9819C10.5373 19.2264 10.2315 19.3544 9.86439 19.3659C9.49728 19.3775 9.18083 19.2495 8.91506 18.9819C8.67061 18.7375 8.54839 18.4264 8.54839 18.0486C8.54839 17.6708 8.67061 17.3597 8.91506 17.1153L14.0817 11.9486C14.5928 11.4375 15.2262 11.1819 15.9817 11.1819C16.7373 11.1819 17.3706 11.4375 17.8817 11.9486L23.0484 17.1153C23.2928 17.3597 23.4208 17.665 23.4324 18.0313C23.4439 18.3975 23.3159 18.7144 23.0484 18.9819C22.8039 19.2264 22.4928 19.3486 22.1151 19.3486C21.7373 19.3486 21.4262 19.2264 21.1817 18.9819L15.9817 13.8153Z" fill="#DEF8FC"/>
</svg>
