<svg width="32" height="32" viewBox="0 0 32 32" fill="none" xmlns="http://www.w3.org/2000/svg">
<path d="M26.6666 18.6667V10.6667L18.6666 2.66675H7.99998C7.29274 2.66675 6.61446 2.9477 6.11436 3.4478C5.61426 3.94789 5.33331 4.62617 5.33331 5.33341V26.6667C5.33331 27.374 5.61426 28.0523 6.11436 28.5524C6.61446 29.0525 7.29274 29.3334 7.99998 29.3334H24C24.7072 29.3334 25.3855 29.0525 25.8856 28.5524C26.3857 28.0523 26.6666 27.374 26.6666 26.6667V21.3334H17.3333V25.3334L10.6666 20.0001L17.3333 14.6667V18.6667H26.6666ZM17.3333 5.33341L24 12.0001H17.3333V5.33341Z" fill="#1E85FF"/>
</svg>
