<svg width="40" height="40" viewBox="0 0 40 40" fill="none" xmlns="http://www.w3.org/2000/svg">
<path d="M18.165 19.1041L24.6233 25.6041C24.9288 25.9097 25.0888 26.2919 25.1033 26.7508C25.1177 27.2097 24.9577 27.6053 24.6233 27.9375C24.3177 28.243 23.9288 28.3958 23.4566 28.3958C22.9844 28.3958 22.5955 28.243 22.29 27.9375L15.8316 21.4791C15.1927 20.8403 14.8733 20.0486 14.8733 19.1041C14.8733 18.1597 15.1927 17.368 15.8316 16.7291L22.29 10.2708C22.5955 9.96526 22.9772 9.80526 23.435 9.79081C23.8927 9.77637 24.2888 9.93637 24.6233 10.2708C24.9288 10.5764 25.0816 10.9653 25.0816 11.4375C25.0816 11.9097 24.9288 12.2986 24.6233 12.6041L18.165 19.1041Z" fill="#1E85FF"/>
</svg>
