<svg width="32" height="32" viewBox="0 0 32 32" fill="none" xmlns="http://www.w3.org/2000/svg">
<g id="basil:chat-outline">
<path id="Vector" d="M10.6667 12.6665C10.2246 12.6665 9.80072 12.8421 9.48816 13.1547C9.17559 13.4672 9 13.8911 9 14.3332C9 14.7752 9.17559 15.1991 9.48816 15.5117C9.80072 15.8242 10.2246 15.9998 10.6667 15.9998C11.1087 15.9998 11.5326 15.8242 11.8452 15.5117C12.1577 15.1991 12.3333 14.7752 12.3333 14.3332C12.3333 13.8911 12.1577 13.4672 11.8452 13.1547C11.5326 12.8421 11.1087 12.6665 10.6667 12.6665ZM16 12.6665C15.558 12.6665 15.134 12.8421 14.8215 13.1547C14.5089 13.4672 14.3333 13.8911 14.3333 14.3332C14.3333 14.7752 14.5089 15.1991 14.8215 15.5117C15.134 15.8242 15.558 15.9998 16 15.9998C16.442 15.9998 16.866 15.8242 17.1785 15.5117C17.4911 15.1991 17.6667 14.7752 17.6667 14.3332C17.6667 13.8911 17.4911 13.4672 17.1785 13.1547C16.866 12.8421 16.442 12.6665 16 12.6665ZM19.6667 14.3332C19.6667 13.8911 19.8423 13.4672 20.1548 13.1547C20.4674 12.8421 20.8913 12.6665 21.3333 12.6665C21.7754 12.6665 22.1993 12.8421 22.5118 13.1547C22.8244 13.4672 23 13.8911 23 14.3332C23 14.7752 22.8244 15.1991 22.5118 15.5117C22.1993 15.8242 21.7754 15.9998 21.3333 15.9998C20.8913 15.9998 20.4674 15.8242 20.1548 15.5117C19.8423 15.1991 19.6667 14.7752 19.6667 14.3332Z" fill="#1E85FF"/>
<path id="Vector_2" fill-rule="evenodd" clip-rule="evenodd" d="M21.4666 6.12382C17.8747 5.81747 14.264 5.79964 10.6693 6.07049L10.4119 6.09049C8.75913 6.21522 7.21447 6.95974 6.08728 8.17494C4.96009 9.39015 4.3336 10.9863 4.33325 12.6438V23.9998C4.3334 24.1727 4.37837 24.3426 4.46376 24.4929C4.54915 24.6432 4.67205 24.7688 4.82047 24.8575C4.96889 24.9461 5.13775 24.9948 5.31058 24.9987C5.48341 25.0026 5.6543 24.9616 5.80659 24.8798L11.0199 22.0785C11.263 21.9478 11.5346 21.8796 11.8106 21.8798H23.7786C25.2879 21.8798 26.5813 20.7998 26.8519 19.3158C27.4013 16.3065 27.4439 13.2265 26.9799 10.2025L26.8439 9.31049C26.723 8.52223 26.3404 7.79755 25.7579 7.25295C25.1753 6.70835 24.4265 6.37547 23.6319 6.30782L21.4666 6.12382ZM10.8213 8.06515C14.3094 7.80197 17.8131 7.81891 21.2986 8.11582L23.4639 8.30115C24.1786 8.36249 24.7599 8.90515 24.8679 9.61449L25.0053 10.5052C25.4347 13.3096 25.3942 16.166 24.8853 18.9572C24.8381 19.216 24.7017 19.4501 24.4997 19.6187C24.2977 19.7873 24.043 19.8797 23.7799 19.8798H11.8106C11.2047 19.8799 10.6082 20.0302 10.0746 20.3172L6.33325 22.3278V12.6425C6.33332 11.4894 6.76897 10.3789 7.55297 9.53332C8.33697 8.68775 9.41145 8.16956 10.5613 8.08249L10.8199 8.06382L10.8213 8.06515Z" fill="#1E85FF"/>
</g>
</svg>
