<svg width="32" height="32" viewBox="0 0 32 32" fill="current" xmlns="http://www.w3.org/2000/svg">
<path fill-rule="evenodd" clip-rule="evenodd" d="M16 11C14.6739 11 13.4021 11.5268 12.4645 12.4645C11.5268 13.4021 11 14.6739 11 16C11 17.3261 11.5268 18.5979 12.4645 19.5355C13.4021 20.4732 14.6739 21 16 21C17.3261 21 18.5979 20.4732 19.5355 19.5355C20.4732 18.5979 21 17.3261 21 16C21 14.6739 20.4732 13.4021 19.5355 12.4645C18.5979 11.5268 17.3261 11 16 11ZM13 16C13 15.2044 13.3161 14.4413 13.8787 13.8787C14.4413 13.3161 15.2044 13 16 13C16.7956 13 17.5587 13.3161 18.1213 13.8787C18.6839 14.4413 19 15.2044 19 16C19 16.7956 18.6839 17.5587 18.1213 18.1213C17.5587 18.6839 16.7956 19 16 19C15.2044 19 14.4413 18.6839 13.8787 18.1213C13.3161 17.5587 13 16.7956 13 16Z" fill="current"/>
<path fill-rule="evenodd" clip-rule="evenodd" d="M15.9667 1.66675C15.3734 1.66675 14.8787 1.66675 14.4734 1.69341C14.059 1.71067 13.6504 1.79627 13.264 1.94675C12.819 2.13087 12.4147 2.40085 12.074 2.74126C11.7334 3.08168 11.4631 3.48587 11.2787 3.93075C11.0854 4.39741 11.0334 4.89075 11.012 5.42675C11.0099 5.62278 10.958 5.81505 10.8612 5.98553C10.7644 6.15601 10.6259 6.29912 10.4587 6.40141C10.2865 6.49542 10.0933 6.54412 9.89716 6.54296C9.70102 6.54179 9.50839 6.49079 9.33736 6.39475C8.86269 6.14408 8.40936 5.94275 7.90803 5.87608C7.43062 5.81328 6.94552 5.84514 6.48042 5.96982C6.01532 6.0945 5.57934 6.30957 5.19736 6.60275C4.87439 6.86259 4.59645 7.17387 4.37469 7.52408C4.14803 7.86275 3.90003 8.29075 3.60403 8.80408L3.57069 8.86275C3.27336 9.37608 3.02669 9.80408 2.84803 10.1694C2.66136 10.5507 2.51469 10.9267 2.46136 11.3427C2.33416 12.3067 2.59506 13.2818 3.18669 14.0534C3.49469 14.4547 3.89603 14.7467 4.34936 15.0321C4.51837 15.132 4.65919 15.2733 4.75855 15.4426C4.85792 15.612 4.91257 15.8038 4.91736 16.0001C4.91257 16.1964 4.85792 16.3882 4.75855 16.5575C4.65919 16.7269 4.51837 16.8682 4.34936 16.9681C3.89603 17.2534 3.49603 17.5454 3.18669 17.9467C2.89351 18.3287 2.67844 18.7647 2.55376 19.2298C2.42908 19.6949 2.39723 20.18 2.46003 20.6574C2.51469 21.0734 2.66003 21.4494 2.84669 21.8307C3.02669 22.1961 3.27336 22.6241 3.57069 23.1374L3.60403 23.1961C3.90003 23.7094 4.14803 24.1374 4.37469 24.4761C4.61069 24.8267 4.86403 25.1427 5.19736 25.3961C5.57924 25.6895 6.01518 25.9048 6.48028 26.0297C6.94538 26.1546 7.43053 26.1867 7.90803 26.1241C8.40936 26.0574 8.86269 25.8574 9.33736 25.6054C9.50818 25.5095 9.70059 25.4585 9.8965 25.4574C10.0924 25.4562 10.2854 25.5049 10.4574 25.5987C10.6255 25.7002 10.7649 25.8431 10.8622 26.0137C10.9595 26.1843 11.0116 26.377 11.0134 26.5734C11.0334 27.1094 11.0854 27.6027 11.28 28.0694C11.4641 28.5144 11.7341 28.9188 12.0745 29.2594C12.415 29.6001 12.8191 29.8703 13.264 30.0547C13.6507 30.2147 14.0507 30.2774 14.4734 30.3054C14.8787 30.3334 15.3734 30.3334 15.9667 30.3334H16.0334C16.6267 30.3334 17.1214 30.3334 17.5267 30.3067C17.9507 30.2774 18.3494 30.2147 18.736 30.0534C19.181 29.8693 19.5854 29.5993 19.926 29.2589C20.2667 28.9185 20.5369 28.5143 20.7214 28.0694C20.9147 27.6027 20.9667 27.1094 20.988 26.5734C20.9899 26.3772 21.0417 26.1846 21.1385 26.0139C21.2353 25.8431 21.3739 25.6998 21.5414 25.5974C21.7136 25.5036 21.9069 25.4551 22.1031 25.4565C22.2992 25.4579 22.4918 25.5092 22.6627 25.6054C23.1374 25.8561 23.5907 26.0574 24.092 26.1227C25.056 26.2499 26.0311 25.989 26.8027 25.3974C27.136 25.1414 27.3894 24.8267 27.6254 24.4761C27.852 24.1374 28.1 23.7094 28.396 23.1961L28.4294 23.1374C28.7267 22.6241 28.9734 22.1961 29.152 21.8307C29.3387 21.4494 29.4854 21.0721 29.5387 20.6574C29.6659 19.6934 29.405 18.7184 28.8134 17.9467C28.5054 17.5454 28.104 17.2534 27.6507 16.9681C27.4817 16.8682 27.3409 16.7269 27.2415 16.5575C27.1421 16.3882 27.0875 16.1964 27.0827 16.0001C27.0827 15.6294 27.2854 15.2614 27.6507 15.0321C28.104 14.7467 28.504 14.4547 28.8134 14.0534C29.1065 13.6714 29.3216 13.2355 29.4463 12.7704C29.571 12.3053 29.6028 11.8202 29.54 11.3427C29.4766 10.933 29.3459 10.5366 29.1534 10.1694C28.9257 9.72641 28.6843 9.29064 28.4294 8.86275L28.396 8.80408C28.1525 8.36953 27.8954 7.94266 27.6254 7.52408C27.4036 7.17424 27.1257 6.8634 26.8027 6.60408C26.4208 6.31067 25.9849 6.09536 25.5198 5.97045C25.0547 5.84554 24.5695 5.81347 24.092 5.87608C23.5907 5.94275 23.1374 6.14275 22.6627 6.39475C22.4918 6.49055 22.2994 6.54142 22.1036 6.54259C21.9077 6.54376 21.7147 6.49518 21.5427 6.40141C21.375 6.29944 21.2359 6.15648 21.1387 5.98597C21.0414 5.81547 20.9891 5.62303 20.9867 5.42675C20.9667 4.89075 20.9147 4.39741 20.72 3.93075C20.5359 3.48575 20.2659 3.08138 19.9255 2.74073C19.5851 2.40008 19.1809 2.12983 18.736 1.94541C18.3494 1.78541 17.9494 1.72275 17.5267 1.69475C17.1214 1.66675 16.6267 1.66675 16.0334 1.66675H15.9667ZM14.0294 3.79341C14.132 3.75075 14.288 3.71208 14.6094 3.68941C14.9387 3.66675 15.3654 3.66675 16 3.66675C16.6347 3.66675 17.0614 3.66675 17.3907 3.68941C17.712 3.71208 17.868 3.75075 17.9707 3.79341C18.38 3.96275 18.704 4.28675 18.8734 4.69608C18.9267 4.82408 18.9707 5.02541 18.988 5.50141C19.028 6.55741 19.5734 7.57475 20.5414 8.13341C21.5094 8.69341 22.6627 8.65608 23.5974 8.16275C24.0187 7.94008 24.2147 7.87741 24.3534 7.86008C24.7914 7.80219 25.2346 7.92065 25.5854 8.18941C25.6734 8.25741 25.7854 8.37341 25.9654 8.64008C26.1507 8.91475 26.364 9.28408 26.6814 9.83341C26.9987 10.3827 27.2107 10.7534 27.356 11.0494C27.4987 11.3387 27.5427 11.4934 27.556 11.6041C27.6139 12.0422 27.4955 12.4853 27.2267 12.8361C27.1414 12.9467 26.9894 13.0854 26.5867 13.3387C25.6907 13.9014 25.0827 14.8827 25.0827 16.0001C25.0827 17.1174 25.6907 18.0987 26.5867 18.6614C26.9894 18.9147 27.1414 19.0534 27.2267 19.1641C27.496 19.5147 27.6134 19.9574 27.556 20.3961C27.5427 20.5067 27.4974 20.6627 27.356 20.9507C27.2107 21.2481 26.9987 21.6174 26.6814 22.1667C26.364 22.7161 26.1494 23.0854 25.9654 23.3601C25.7854 23.6267 25.6734 23.7427 25.5854 23.8107C25.2346 24.0795 24.7914 24.198 24.3534 24.1401C24.2147 24.1227 24.02 24.0601 23.5974 23.8374C22.664 23.3441 21.5094 23.3067 20.5414 23.8654C19.5734 24.4254 19.028 25.4427 18.988 26.4987C18.9707 26.9747 18.9267 27.1761 18.8734 27.3041C18.7896 27.5065 18.6668 27.6904 18.5119 27.8453C18.357 28.0001 18.1731 28.123 17.9707 28.2067C17.868 28.2494 17.712 28.2881 17.3907 28.3107C17.0614 28.3334 16.6347 28.3334 16 28.3334C15.3654 28.3334 14.9387 28.3334 14.6094 28.3107C14.288 28.2881 14.132 28.2494 14.0294 28.2067C13.827 28.123 13.6431 28.0001 13.4882 27.8453C13.3333 27.6904 13.2105 27.5065 13.1267 27.3041C13.0734 27.1761 13.0294 26.9747 13.012 26.4987C12.972 25.4427 12.4267 24.4254 11.4587 23.8667C10.4907 23.3067 9.33736 23.3441 8.40269 23.8374C7.98136 24.0601 7.78536 24.1227 7.64669 24.1401C7.20861 24.198 6.76546 24.0795 6.41469 23.8107C6.32669 23.7427 6.21469 23.6267 6.03469 23.3601C5.78391 22.9697 5.54513 22.5717 5.31869 22.1667C5.00136 21.6174 4.78936 21.2467 4.64403 20.9507C4.50136 20.6614 4.45736 20.5067 4.44403 20.3961C4.38614 19.958 4.5046 19.5148 4.77336 19.1641C4.85869 19.0534 5.01069 18.9147 5.41336 18.6614C6.30936 18.0987 6.91736 17.1174 6.91736 16.0001C6.91736 14.8827 6.30936 13.9014 5.41336 13.3387C5.01069 13.0854 4.85869 12.9467 4.77336 12.8361C4.5046 12.4853 4.38614 12.0422 4.44403 11.6041C4.45736 11.4934 4.50269 11.3374 4.64403 11.0494C4.78936 10.7521 5.00136 10.3827 5.31869 9.83341C5.63603 9.28408 5.85069 8.91475 6.03469 8.64008C6.21469 8.37341 6.32669 8.25741 6.41469 8.18941C6.76546 7.92065 7.20861 7.80219 7.64669 7.86008C7.78536 7.87741 7.98003 7.94008 8.40269 8.16275C9.33603 8.65608 10.4907 8.69341 11.4587 8.13341C12.4267 7.57475 12.972 6.55741 13.012 5.50141C13.0294 5.02541 13.0734 4.82408 13.1267 4.69608C13.296 4.28675 13.62 3.96275 14.0294 3.79341Z" fill="current"/>
</svg>
