<svg width="24" height="24" viewBox="0 0 24 24" fill="none" xmlns="http://www.w3.org/2000/svg">
<path d="M6.23433 20.6251C5.94653 20.6245 5.66382 20.5491 5.41402 20.4062C4.85152 20.0874 4.50183 19.4687 4.50183 18.797V5.20321C4.50183 4.52961 4.85152 3.91274 5.41402 3.59399C5.66977 3.44701 5.96031 3.37142 6.25526 3.37513C6.55022 3.37884 6.83876 3.46171 7.09074 3.61508L18.7087 10.5695C18.9508 10.7213 19.1504 10.9321 19.2888 11.1822C19.4272 11.4322 19.4997 11.7134 19.4997 11.9991C19.4997 12.2849 19.4272 12.566 19.2888 12.8161C19.1504 13.0662 18.9508 13.277 18.7087 13.4288L7.08886 20.3851C6.831 20.541 6.53565 20.6239 6.23433 20.6251Z" fill="#1E85FF"/>
</svg>
