<svg width="30" height="28" viewBox="0 0 30 28" fill="none" xmlns="http://www.w3.org/2000/svg">
<path d="M1 18.2778V9.72221C1 7.45314 1.885 5.277 3.4603 3.67252C5.03561 2.06804 7.17218 1.16666 9.4 1.16666H20.6C22.8278 1.16666 24.9644 2.06804 26.5397 3.67252C28.115 5.277 29 7.45314 29 9.72221V18.2778C29 20.5468 28.115 22.723 26.5397 24.3275C24.9644 25.9319 22.8278 26.8333 20.6 26.8333H9.4C7.17218 26.8333 5.03561 25.9319 3.4603 24.3275C1.885 22.723 1 20.5468 1 18.2778Z" stroke="#1E85FF" stroke-width="1.75"/>
<path d="M15 18.2779V9.72232H18.5C19.0569 9.72232 19.5911 9.94767 19.9849 10.3488C20.3787 10.7499 20.6 11.2939 20.6 11.8612C20.6 12.4285 20.3787 12.9725 19.9849 13.3736C19.5911 13.7748 19.0569 14.0001 18.5 14.0001H15M10.8 9.72232V18.2779" stroke="#1E85FF" stroke-width="1.75" stroke-linecap="round" stroke-linejoin="round"/>
</svg>
