<svg width="32" height="32" viewBox="0 0 32 32" fill="current" xmlns="http://www.w3.org/2000/svg">
<path fill-rule="evenodd" clip-rule="evenodd" d="M14.592 1.66675H17.408C19.8587 1.66675 21.8 1.66675 23.3187 1.87075C24.8813 2.08141 26.1467 2.52408 27.1453 3.52141C28.1427 4.52008 28.5853 5.78541 28.796 7.34808C29 8.86808 29 10.8081 29 13.2587V18.7414C29 21.1921 29 23.1334 28.796 24.6521C28.5853 26.2147 28.1427 27.4801 27.1453 28.4787C26.1467 29.4761 24.8813 29.9187 23.3187 30.1294C21.7987 30.3334 19.8587 30.3334 17.408 30.3334H14.592C12.1413 30.3334 10.2 30.3334 8.68133 30.1294C7.11867 29.9187 5.85333 29.4761 4.85467 28.4787C3.85733 27.4801 3.41467 26.2147 3.204 24.6521C3 23.1321 3 21.1921 3 18.7414V13.2587C3 10.8081 3 8.86675 3.204 7.34808C3.41467 5.78541 3.85733 4.52008 4.85467 3.52141C5.85333 2.52408 7.11867 2.08141 8.68133 1.87075C10.2013 1.66675 12.1413 1.66675 14.592 1.66675ZM8.94667 3.85341C7.60533 4.03341 6.832 4.37208 6.26667 4.93608C5.704 5.50008 5.36533 6.27341 5.18533 7.61475C5.00133 8.98541 4.99867 10.7907 4.99867 13.3334V18.6667C4.99867 21.2094 5.00133 23.0161 5.18533 24.3867C5.36533 25.7267 5.704 26.5001 6.268 27.0641C6.832 27.6281 7.60533 27.9667 8.94667 28.1467C10.3173 28.3307 12.1227 28.3334 14.6653 28.3334H17.332C19.8747 28.3334 21.6813 28.3307 23.052 28.1467C24.392 27.9667 25.1653 27.6281 25.7293 27.0641C26.2933 26.5001 26.632 25.7267 26.812 24.3854C26.996 23.0161 26.9987 21.2094 26.9987 18.6667V13.3334C26.9987 10.7907 26.996 8.98541 26.812 7.61341C26.632 6.27341 26.2933 5.50008 25.7293 4.93608C25.1653 4.37208 24.392 4.03341 23.0507 3.85341C21.6813 3.66941 19.8747 3.66675 17.332 3.66675H14.6653C12.1227 3.66675 10.3187 3.66941 8.94667 3.85341ZM9.66667 13.3334C9.66667 13.0682 9.77202 12.8138 9.95956 12.6263C10.1471 12.4388 10.4015 12.3334 10.6667 12.3334H21.3333C21.5986 12.3334 21.8529 12.4388 22.0404 12.6263C22.228 12.8138 22.3333 13.0682 22.3333 13.3334C22.3333 13.5986 22.228 13.853 22.0404 14.0405C21.8529 14.2281 21.5986 14.3334 21.3333 14.3334H10.6667C10.4015 14.3334 10.1471 14.2281 9.95956 14.0405C9.77202 13.853 9.66667 13.5986 9.66667 13.3334ZM9.66667 18.6667C9.66667 18.4015 9.77202 18.1472 9.95956 17.9596C10.1471 17.7721 10.4015 17.6667 10.6667 17.6667H17.3333C17.5986 17.6667 17.8529 17.7721 18.0404 17.9596C18.228 18.1472 18.3333 18.4015 18.3333 18.6667C18.3333 18.932 18.228 19.1863 18.0404 19.3739C17.8529 19.5614 17.5986 19.6667 17.3333 19.6667H10.6667C10.4015 19.6667 10.1471 19.5614 9.95956 19.3739C9.77202 19.1863 9.66667 18.932 9.66667 18.6667Z" fill="current"/>
</svg>
