<svg width="32" height="32" viewBox="0 0 32 32" fill="none" xmlns="http://www.w3.org/2000/svg">
<path d="M16.0001 18.6667C14.889 18.6667 13.9445 18.2779 13.1667 17.5001C12.389 16.7223 12.0001 15.7779 12.0001 14.6667V6.66675C12.0001 5.55564 12.389 4.61119 13.1667 3.83341C13.9445 3.05564 14.889 2.66675 16.0001 2.66675C17.1112 2.66675 18.0556 3.05564 18.8334 3.83341C19.6112 4.61119 20.0001 5.55564 20.0001 6.66675V14.6667C20.0001 15.7779 19.6112 16.7223 18.8334 17.5001C18.0556 18.2779 17.1112 18.6667 16.0001 18.6667ZM14.6667 28.0001V23.9001C12.3556 23.589 10.4445 22.5556 8.93341 20.8001C7.4223 19.0445 6.66675 17.0001 6.66675 14.6667H9.33341C9.33341 16.5112 9.98364 18.0836 11.2841 19.3841C12.5845 20.6845 14.1565 21.3343 16.0001 21.3334C17.8445 21.3334 19.417 20.6832 20.7174 19.3827C22.0179 18.0823 22.6676 16.5103 22.6667 14.6667H25.3334C25.3334 17.0001 24.5779 19.0445 23.0667 20.8001C21.5556 22.5556 19.6445 23.589 17.3334 23.9001V28.0001H14.6667Z" fill="#1E85FF"/>
</svg>
