<svg width="28" height="28" viewBox="0 0 28 28" fill="transparent" xmlns="http://www.w3.org/2000/svg">
<g id="Group">
<path id="Vector" d="M22.4854 22.4854C23.5997 21.3711 24.4836 20.0482 25.0867 18.5923C25.6898 17.1364 26.0001 15.5759 26.0001 14.0001C26.0001 12.4242 25.6898 10.8638 25.0867 9.40784C24.4836 7.95193 23.5997 6.62905 22.4854 5.51474C21.3711 4.40043 20.0482 3.51651 18.5923 2.91345C17.1364 2.31039 15.5759 2 14.0001 2C12.4242 2 10.8638 2.31039 9.40784 2.91345C7.95193 3.51651 6.62905 4.40043 5.51474 5.51474C3.26429 7.76519 2 10.8175 2 14.0001C2 17.1827 3.26429 20.235 5.51474 22.4854C7.76519 24.7359 10.8175 26.0001 14.0001 26.0001C17.1827 26.0001 20.235 24.7359 22.4854 22.4854Z" stroke="current" stroke-width="2.66667" stroke-linecap="round" stroke-linejoin="round"/>
<path id="Vector_2" d="M8.34277 19.6572C9.08566 20.4002 9.96763 20.9896 10.9383 21.3918C11.909 21.7939 12.9494 22.0009 14.0001 22.0009C15.0508 22.0009 16.0912 21.7939 17.0619 21.3918C18.0326 20.9896 18.9146 20.4002 19.6574 19.6572" stroke="current" stroke-width="2.66667" stroke-linecap="round" stroke-linejoin="round"/>
</g>
</svg>
