<svg width="32" height="32" viewBox="0 0 32 32" fill="current" xmlns="http://www.w3.org/2000/svg">
<g id="tabler:face-id">
<path id="Vector" d="M5.33325 10.6668V8.00016C5.33325 7.29292 5.6142 6.61464 6.1143 6.11454C6.6144 5.61445 7.29267 5.3335 7.99992 5.3335H10.6666M5.33325 21.3335V24.0002C5.33325 24.7074 5.6142 25.3857 6.1143 25.8858C6.6144 26.3859 7.29267 26.6668 7.99992 26.6668H10.6666M21.3333 5.3335H23.9999C24.7072 5.3335 25.3854 5.61445 25.8855 6.11454C26.3856 6.61464 26.6666 7.29292 26.6666 8.00016V10.6668M21.3333 26.6668H23.9999C24.7072 26.6668 25.3854 26.3859 25.8855 25.8858C26.3856 25.3857 26.6666 24.7074 26.6666 24.0002V21.3335M11.9999 13.3335H12.0133M19.9999 13.3335H20.0133M12.6666 20.0002C13.1011 20.4436 13.6197 20.7959 14.1921 21.0364C14.7645 21.277 15.3791 21.4008 15.9999 21.4008C16.6208 21.4008 17.2354 21.277 17.8077 21.0364C18.3801 20.7959 18.8987 20.4436 19.3333 20.0002" stroke="current" stroke-width="2.66667" stroke-linecap="round" stroke-linejoin="round"/>
</g>
</svg>
