<svg xmlns="http://www.w3.org/2000/svg" width="32" height="32" viewBox="0 0 32 32" fill="none">
<path d="M5.33337 28V21.3333C5.33337 20.6 5.59471 19.972 6.11737 19.4493C6.64004 18.9267 7.2676 18.6658 8.00004 18.6667H24C24.7334 18.6667 25.3614 18.928 25.884 19.4507C26.4067 19.9733 26.6676 20.6009 26.6667 21.3333V28H5.33337ZM12 17.3333C10.1556 17.3333 8.58315 16.6831 7.28271 15.3827C5.98226 14.0822 5.33249 12.5102 5.33337 10.6667C5.33337 8.82222 5.9836 7.24978 7.28404 5.94933C8.58449 4.64889 10.1565 3.99911 12 4H20C21.8445 4 23.4169 4.65022 24.7174 5.95067C26.0178 7.25111 26.6676 8.82311 26.6667 10.6667C26.6667 12.5111 26.0165 14.0836 24.716 15.384C23.4156 16.6844 21.8436 17.3342 20 17.3333H12ZM12 12C12.3778 12 12.6947 11.872 12.9507 11.616C13.2067 11.36 13.3343 11.0436 13.3334 10.6667C13.3334 10.2889 13.2054 9.972 12.9494 9.716C12.6934 9.46 12.3769 9.33245 12 9.33333C11.6223 9.33333 11.3054 9.46133 11.0494 9.71733C10.7934 9.97333 10.6658 10.2898 10.6667 10.6667C10.6667 11.0444 10.7947 11.3613 11.0507 11.6173C11.3067 11.8733 11.6232 12.0009 12 12ZM20 12C20.3778 12 20.6947 11.872 20.9507 11.616C21.2067 11.36 21.3343 11.0436 21.3334 10.6667C21.3334 10.2889 21.2054 9.972 20.9494 9.716C20.6934 9.46 20.3769 9.33245 20 9.33333C19.6223 9.33333 19.3054 9.46133 19.0494 9.71733C18.7934 9.97333 18.6658 10.2898 18.6667 10.6667C18.6667 11.0444 18.7947 11.3613 19.0507 11.6173C19.3067 11.8733 19.6232 12.0009 20 12Z" fill="#1E85FF"/>
</svg>
