<svg width="32" height="32" viewBox="0 0 32 32" fill="none" xmlns="http://www.w3.org/2000/svg">
<g id="material-symbols:deployed-code-update-outline">
<path id="Vector" d="M14.6667 3.03317C15.0889 2.78873 15.5333 2.6665 16 2.6665C16.4667 2.6665 16.9111 2.78873 17.3333 3.03317L26.6667 8.39984C27.0889 8.64428 27.4169 8.9665 27.6507 9.3665C27.8844 9.7665 28.0009 10.2109 28 10.6998V16.3665C27.6 16.0776 27.1778 15.8274 26.7333 15.6158C26.2889 15.4043 25.8222 15.2212 25.3333 15.0665V12.1332L20.5333 14.8998C19.2889 15.2109 18.1609 15.7389 17.1493 16.4838C16.1378 17.2287 15.3102 18.1341 14.6667 19.1998V16.7665L6.66667 12.1332V21.2665L13.4 25.1665C13.4889 25.8776 13.6556 26.5612 13.9 27.2172C14.1444 27.8732 14.4556 28.4896 14.8333 29.0665C14.7889 29.0443 14.7609 29.0274 14.7493 29.0158C14.7378 29.0043 14.7102 28.9883 14.6667 28.9678L5.33334 23.5998C4.91112 23.3554 4.58312 23.0332 4.34934 22.6332C4.11556 22.2332 3.99912 21.7887 4.00001 21.2998V10.6998C4.00001 10.2109 4.11689 9.7665 4.35067 9.3665C4.58445 8.9665 4.91201 8.64428 5.33334 8.39984L14.6667 3.03317ZM16 5.33317L8.1 9.89984L16 14.4665L23.9 9.89984L16 5.33317ZM22.6667 27.9998L26.6667 23.9998L25.7333 23.0665L23.3333 25.4665V19.9998H22V25.4665L19.6 23.0665L18.6667 23.9998L22.6667 27.9998ZM22.6667 30.6665C20.8222 30.6665 19.2498 30.0163 17.9493 28.7158C16.6489 27.4154 15.9991 25.8434 16 23.9998C16 22.1554 16.6502 20.5829 17.9507 19.2825C19.2511 17.9821 20.8231 17.3323 22.6667 17.3332C24.5111 17.3332 26.0836 17.9834 27.384 19.2838C28.6844 20.5843 29.3342 22.1563 29.3333 23.9998C29.3333 25.8443 28.6831 27.4167 27.3827 28.7172C26.0822 30.0176 24.5102 30.6674 22.6667 30.6665Z" fill="#1E85FF"/>
</g>
</svg>
