<svg width="32" height="32" viewBox="0 0 32 32" fill="none" xmlns="http://www.w3.org/2000/svg">
<path d="M14.1467 21.8237C14.4225 21.533 14.7538 21.3004 15.121 21.1398C15.4881 20.9791 15.8838 20.8937 16.2845 20.8884C16.6853 20.8831 17.083 20.9582 17.4543 21.1091C17.8255 21.26 18.1628 21.4838 18.4462 21.7672C18.7296 22.0506 18.9534 22.3879 19.1043 22.7591C19.2552 23.1304 19.3303 23.5282 19.325 23.9289C19.3197 24.3296 19.2343 24.7253 19.0736 25.0925C18.913 25.4596 18.6804 25.7909 18.3897 26.0667C17.8242 26.6159 17.0653 26.9206 16.2771 26.9149C15.4888 26.9092 14.7345 26.5937 14.177 26.0364C13.6194 25.4792 13.3035 24.7249 13.2975 23.9367C13.2914 23.1485 13.5957 22.3895 14.1447 21.8237H14.1467ZM8.93988 16.341C9.91135 15.3693 11.0647 14.5985 12.3341 14.0726C13.6035 13.5468 14.9641 13.2761 16.3381 13.2761C17.7122 13.2761 19.0727 13.5468 20.3421 14.0726C21.6116 14.5985 22.7649 15.3693 23.7364 16.341C24.6562 17.2628 25.412 18.3905 25.9379 19.5903C26.0433 19.8308 26.1003 20.0897 26.1057 20.3523C26.111 20.6149 26.0646 20.8759 25.9691 21.1205C25.8736 21.3651 25.7308 21.5886 25.5489 21.778C25.3671 21.9675 25.1497 22.1192 24.9091 22.2246C24.6686 22.3301 24.4097 22.3871 24.1471 22.3925C23.8845 22.3978 23.6235 22.3514 23.3789 22.2559C23.1343 22.1603 22.9108 22.0176 22.7214 21.8357C22.5319 21.6538 22.3802 21.4364 22.2747 21.1959C21.9473 20.4428 21.4844 19.7563 20.9091 19.1704C19.6968 17.9581 18.0526 17.2771 16.3381 17.2771C14.6237 17.2771 12.9795 17.9581 11.7672 19.1704C11.1988 19.7475 10.7431 20.4256 10.4235 21.1699C10.3203 21.4135 10.1698 21.6343 9.98066 21.8193C9.79152 22.0043 9.56754 22.15 9.32169 22.2478C9.07585 22.3456 8.81303 22.3937 8.54848 22.3892C8.28392 22.3847 8.02289 22.3278 7.7805 22.2217C7.53812 22.1156 7.3192 21.9624 7.13644 21.7711C6.95369 21.5797 6.81072 21.354 6.71583 21.107C6.62095 20.86 6.57603 20.5967 6.58368 20.3322C6.59132 20.0677 6.65139 19.8074 6.76039 19.5663C7.27946 18.3647 8.01867 17.2708 8.93988 16.341ZM4.84884 10.3604C6.358 8.8512 8.14967 7.654 10.1215 6.8372C12.0934 6.02041 14.2068 5.60001 16.3411 5.60001C18.4755 5.60001 20.5889 6.02041 22.5608 6.8372C24.5326 7.654 26.3243 8.8512 27.8334 10.3604C29.0451 11.5865 30.0595 12.9929 30.8407 14.5295C30.9602 14.7633 31.0325 15.0184 31.0534 15.2801C31.0743 15.5419 31.0434 15.8052 30.9625 16.055C30.8817 16.3048 30.7524 16.5363 30.5821 16.7361C30.4118 16.936 30.2038 17.1003 29.9699 17.2198C29.7361 17.3393 29.481 17.4115 29.2193 17.4324C28.9575 17.4533 28.6942 17.4225 28.4444 17.3416C28.1946 17.2608 27.9631 17.1315 27.7633 16.9612C27.5634 16.7909 27.399 16.5829 27.2796 16.349C26.6885 15.1848 25.9217 14.1186 25.0061 13.1878C23.6373 11.8185 21.9636 10.7931 20.122 10.1955C18.2805 9.59795 16.3235 9.44529 14.4116 9.75003C12.4996 10.0548 10.6871 10.8082 9.12255 11.9487C7.558 13.0891 6.28597 14.5841 5.41071 16.311C5.29727 16.5535 5.13628 16.7708 4.9373 16.9499C4.73831 17.129 4.50538 17.2664 4.25233 17.3538C3.99927 17.4412 3.73123 17.4769 3.46412 17.4588C3.197 17.4406 2.93625 17.369 2.69733 17.2482C2.4584 17.1274 2.24617 16.9599 2.07322 16.7555C1.90026 16.5511 1.77012 16.3141 1.69049 16.0585C1.61086 15.8029 1.58338 15.5339 1.60967 15.2675C1.63596 15.001 1.71549 14.7426 1.84354 14.5075C2.61844 12.9741 3.63295 11.5742 4.84884 10.3604Z" fill="#1E85FF"/>
</svg>
